<svg width="10" height="5" viewBox="0 0 10 5" fill="none" xmlns="http://www.w3.org/2000/svg">
<path d="M0.776247 4.14487L4.68023 1.07105C4.76541 1.00363 4.88039 0.965821 5.00021 0.965821C5.12003 0.965821 5.23502 1.00363 5.3202 1.07105L9.22418 4.1442C9.30989 4.21158 9.42525 4.24933 9.54541 4.24933C9.66558 4.24933 9.78094 4.21158 9.86665 4.1442C9.90886 4.11128 9.9424 4.07194 9.9653 4.02849C9.9882 3.98504 10 3.93837 10 3.89121C10 3.84406 9.9882 3.79738 9.9653 3.75393C9.9424 3.71049 9.90886 3.67114 9.86665 3.63823L5.9635 0.565078C5.70641 0.363139 5.36051 0.25 5.00021 0.25C4.63992 0.25 4.29402 0.363139 4.03693 0.565078L0.133778 3.63823C0.091445 3.67115 0.0577947 3.71054 0.0348168 3.75405C0.0118389 3.79756 0 3.84431 0 3.89155C0 3.93878 0.0118389 3.98553 0.0348168 4.02904C0.0577947 4.07256 0.091445 4.11194 0.133778 4.14487C0.219487 4.21224 0.334846 4.25 0.455013 4.25C0.575179 4.25 0.690539 4.21224 0.776247 4.14487Z" fill="#FF005A"/>
</svg>
