<svg width="14" height="7" viewBox="0 0 14 7" fill="none" xmlns="http://www.w3.org/2000/svg">
<path d="M13.5898 0.310022C13.4742 0.217319 13.3368 0.143771 13.1856 0.0935898C13.0344 0.0434083 12.8723 0.0175781 12.7086 0.0175781C12.5449 0.0175781 12.3828 0.0434083 12.2315 0.0935898C12.0803 0.143771 11.943 0.217319 11.8273 0.310022L6.97733 4.19002L2.12733 0.310022C1.89361 0.123045 1.57661 0.0180016 1.24608 0.0180016C0.915546 0.0180016 0.598549 0.123045 0.364827 0.310022C0.131105 0.497 -0.000196457 0.750596 -0.000196457 1.01502C-0.000196457 1.27945 0.131105 1.53304 0.364827 1.72002L6.10233 6.31002C6.21797 6.40273 6.35533 6.47627 6.50655 6.52645C6.65776 6.57664 6.81987 6.60247 6.98358 6.60247C7.14729 6.60247 7.30939 6.57664 7.46061 6.52645C7.61183 6.47627 7.74919 6.40273 7.86483 6.31002L13.6023 1.72002C14.0773 1.34002 14.0773 0.700022 13.5898 0.310022Z" fill="black"/>
</svg>
