<svg width="280" height="330" viewBox="0 0 280 330" fill="none" xmlns="http://www.w3.org/2000/svg">
<rect x="120" y="249.75" width="40" height="40" fill="#FF005A" fill-opacity="0.2"/>
<rect y="209.75" width="160" height="80" fill="#FF005A" fill-opacity="0.2"/>
<rect x="160" y="129.75" width="120" height="120" fill="#FF005A" fill-opacity="0.2"/>
<rect y="169.75" width="160" height="40" fill="#FF005A" fill-opacity="0.2"/>
<rect x="160" y="129.25" width="40" height="40" fill="#FF005A" fill-opacity="0.2"/>
<rect x="0.25" y="50" width="279.5" height="279.5" stroke="#1A1A1A" stroke-width="0.5"/>
<line x1="40.25" y1="49.75" x2="40.25" y2="329.75" stroke="#888888" stroke-width="0.5"/>
<line x1="80.25" y1="49.75" x2="80.25" y2="329.75" stroke="#888888" stroke-width="0.5"/>
<line x1="120.25" y1="49.75" x2="120.25" y2="329.75" stroke="#888888" stroke-width="0.5"/>
<line x1="240.25" y1="49.75" x2="240.25" y2="329.75" stroke="#888888" stroke-width="0.5"/>
<line x1="160.25" y1="49.75" x2="160.25" y2="329.75" stroke="#888888" stroke-width="0.5"/>
<line x1="200.25" y1="49.75" x2="200.25" y2="329.75" stroke="#888888" stroke-width="0.5"/>
<line x1="-1.09278e-08" y1="289.5" x2="280" y2="289.5" stroke="#888888" stroke-width="0.5"/>
<line x1="-1.09278e-08" y1="249.5" x2="280" y2="249.5" stroke="#888888" stroke-width="0.5"/>
<line x1="-1.09278e-08" y1="209.5" x2="280" y2="209.5" stroke="#888888" stroke-width="0.5"/>
<line x1="-1.09278e-08" y1="89.5" x2="280" y2="89.5" stroke="#888888" stroke-width="0.5"/>
<line x1="-1.09278e-08" y1="169.5" x2="280" y2="169.5" stroke="#888888" stroke-width="0.5"/>
<line x1="-1.09278e-08" y1="129.5" x2="280" y2="129.5" stroke="#888888" stroke-width="0.5"/>
<path d="M10.36 79.75V68.39H19.128V79.75H17.688V69.67H11.8V79.75H10.36ZM22.6044 79.75V71.398H24.0124V74.854H28.3644V71.398H29.7724V79.75H28.3644V76.102H24.0124V79.75H22.6044Z" fill="black"/>
<path d="M61.08 76.822C61.08 77.4087 60.9307 77.9207 60.632 78.358C60.3333 78.7953 59.928 79.1367 59.416 79.382C58.9147 79.6273 58.36 79.75 57.752 79.75H52.36V68.39H58.008C58.5413 68.39 59 68.534 59.384 68.822C59.7787 69.0993 60.0773 69.462 60.28 69.91C60.4933 70.3473 60.6 70.806 60.6 71.286C60.6 71.8407 60.456 72.3633 60.168 72.854C59.8907 73.334 59.4907 73.6913 58.968 73.926C59.6187 74.118 60.1307 74.4753 60.504 74.998C60.888 75.51 61.08 76.118 61.08 76.822ZM59.624 76.566C59.624 76.214 59.544 75.8887 59.384 75.59C59.2347 75.2913 59.0267 75.0513 58.76 74.87C58.504 74.6887 58.2053 74.598 57.864 74.598H53.8V78.502H57.752C58.104 78.502 58.4187 78.4113 58.696 78.23C58.984 78.0487 59.208 77.814 59.368 77.526C59.5387 77.2273 59.624 76.9073 59.624 76.566ZM53.8 69.638V73.43H57.416C57.7573 73.43 58.056 73.3447 58.312 73.174C58.5787 73.0033 58.7867 72.774 58.936 72.486C59.096 72.198 59.176 71.8833 59.176 71.542C59.176 71.1793 59.1013 70.8593 58.952 70.582C58.8133 70.294 58.616 70.0647 58.36 69.894C58.1147 69.7233 57.832 69.638 57.512 69.638H53.8ZM65.9024 79.75V72.646H63.0224V71.398H70.1904V72.646H67.3104V79.75H65.9024Z" fill="black"/>
<path d="M90.624 73.99C90.624 73.2967 90.7413 72.6193 90.976 71.958C91.2213 71.286 91.5733 70.678 92.032 70.134C92.5013 69.5793 93.072 69.142 93.744 68.822C94.416 68.4913 95.1787 68.326 96.032 68.326C97.0453 68.326 97.9147 68.5607 98.64 69.03C99.3653 69.4887 99.904 70.0807 100.256 70.806L99.12 71.542C98.896 71.062 98.608 70.6833 98.256 70.406C97.9147 70.118 97.5413 69.9153 97.136 69.798C96.7413 69.6807 96.352 69.622 95.968 69.622C95.3387 69.622 94.7787 69.75 94.288 70.006C93.808 70.262 93.4027 70.6033 93.072 71.03C92.7413 71.4567 92.4907 71.9367 92.32 72.47C92.16 72.9927 92.08 73.5207 92.08 74.054C92.08 74.6407 92.176 75.206 92.368 75.75C92.5707 76.294 92.848 76.774 93.2 77.19C93.552 77.606 93.968 77.9367 94.448 78.182C94.928 78.4273 95.4507 78.55 96.016 78.55C96.4107 78.55 96.816 78.4807 97.232 78.342C97.648 78.2033 98.0373 77.99 98.4 77.702C98.7627 77.4033 99.0507 77.0193 99.264 76.55L100.464 77.206C100.229 77.7713 99.8667 78.2513 99.376 78.646C98.8853 79.0407 98.336 79.3393 97.728 79.542C97.1307 79.7447 96.5387 79.846 95.952 79.846C95.1733 79.846 94.4587 79.6807 93.808 79.35C93.1573 79.0087 92.592 78.5607 92.112 78.006C91.6427 77.4407 91.2747 76.8113 91.008 76.118C90.752 75.414 90.624 74.7047 90.624 73.99ZM107.538 79.91C106.856 79.91 106.248 79.7393 105.714 79.398C105.181 79.0567 104.76 78.6247 104.45 78.102V83.158H103.042V71.398H104.29V72.966C104.621 72.454 105.053 72.0433 105.586 71.734C106.12 71.414 106.701 71.254 107.33 71.254C107.906 71.254 108.434 71.3713 108.914 71.606C109.394 71.8407 109.81 72.1607 110.162 72.566C110.514 72.9713 110.786 73.4353 110.978 73.958C111.181 74.47 111.282 75.0087 111.282 75.574C111.282 76.3633 111.122 77.0887 110.802 77.75C110.493 78.4113 110.056 78.9393 109.49 79.334C108.925 79.718 108.274 79.91 107.538 79.91ZM107.106 78.694C107.522 78.694 107.896 78.6087 108.226 78.438C108.568 78.2567 108.856 78.022 109.09 77.734C109.336 77.4353 109.522 77.0993 109.65 76.726C109.778 76.3527 109.842 75.9687 109.842 75.574C109.842 75.158 109.768 74.7633 109.618 74.39C109.48 74.0167 109.277 73.686 109.01 73.398C108.754 73.11 108.45 72.886 108.098 72.726C107.757 72.5553 107.384 72.47 106.978 72.47C106.722 72.47 106.456 72.518 106.178 72.614C105.912 72.71 105.656 72.8487 105.41 73.03C105.165 73.2007 104.957 73.398 104.786 73.622C104.616 73.846 104.504 74.086 104.45 74.342V76.726C104.61 77.0887 104.824 77.4193 105.09 77.718C105.357 78.0167 105.666 78.2567 106.018 78.438C106.37 78.6087 106.733 78.694 107.106 78.694Z" fill="black"/>
<path d="M137.6 79.75V74.998C137.397 75.0833 137.157 75.174 136.88 75.27C136.603 75.366 136.283 75.446 135.92 75.51C135.568 75.5633 135.179 75.59 134.752 75.59C133.493 75.59 132.56 75.3127 131.952 74.758C131.344 74.1927 131.04 73.2967 131.04 72.07V68.39H132.432V71.91C132.432 72.7313 132.629 73.334 133.024 73.718C133.429 74.0913 134.085 74.278 134.992 74.278C135.461 74.278 135.936 74.2247 136.416 74.118C136.907 74.0113 137.301 73.878 137.6 73.718V68.39H139.008V79.75H137.6ZM144.543 79.75V72.646H141.663V71.398H148.831V72.646H145.951V79.75H144.543Z" fill="black"/>
<path d="M171.36 79.75V68.39H180.128V79.75H178.688V69.67H172.8V79.75H171.36ZM185.652 79.75V72.646H182.772V71.398H189.94V72.646H187.06V79.75H185.652Z" fill="black"/>
<path d="M210.624 73.99C210.624 73.2967 210.741 72.6193 210.976 71.958C211.221 71.286 211.573 70.678 212.032 70.134C212.501 69.5793 213.072 69.142 213.744 68.822C214.416 68.4913 215.179 68.326 216.032 68.326C217.045 68.326 217.915 68.5607 218.64 69.03C219.365 69.4887 219.904 70.0807 220.256 70.806L219.12 71.542C218.896 71.062 218.608 70.6833 218.256 70.406C217.915 70.118 217.541 69.9153 217.136 69.798C216.741 69.6807 216.352 69.622 215.968 69.622C215.339 69.622 214.779 69.75 214.288 70.006C213.808 70.262 213.403 70.6033 213.072 71.03C212.741 71.4567 212.491 71.9367 212.32 72.47C212.16 72.9927 212.08 73.5207 212.08 74.054C212.08 74.6407 212.176 75.206 212.368 75.75C212.571 76.294 212.848 76.774 213.2 77.19C213.552 77.606 213.968 77.9367 214.448 78.182C214.928 78.4273 215.451 78.55 216.016 78.55C216.411 78.55 216.816 78.4807 217.232 78.342C217.648 78.2033 218.037 77.99 218.4 77.702C218.763 77.4033 219.051 77.0193 219.264 76.55L220.464 77.206C220.229 77.7713 219.867 78.2513 219.376 78.646C218.885 79.0407 218.336 79.3393 217.728 79.542C217.131 79.7447 216.539 79.846 215.952 79.846C215.173 79.846 214.459 79.6807 213.808 79.35C213.157 79.0087 212.592 78.5607 212.112 78.006C211.643 77.4407 211.275 76.8113 211.008 76.118C210.752 75.414 210.624 74.7047 210.624 73.99ZM226.9 79.91C225.524 79.91 224.484 79.494 223.78 78.662C223.076 77.83 222.724 76.6567 222.724 75.142C222.724 74.1073 222.809 73.238 222.98 72.534C223.151 71.8193 223.407 71.2327 223.748 70.774C224.089 70.3047 224.511 69.926 225.012 69.638C225.513 69.3393 226.089 69.094 226.74 68.902L230.276 67.83L230.356 69.046L226.916 70.086C226.329 70.278 225.839 70.5233 225.444 70.822C225.049 71.1207 224.74 71.5047 224.516 71.974C224.292 72.4433 224.143 73.046 224.068 73.782C224.345 73.2167 224.761 72.7793 225.316 72.47C225.871 72.15 226.516 71.99 227.252 71.99C228.041 71.99 228.719 72.1553 229.284 72.486C229.86 72.806 230.297 73.2593 230.596 73.846C230.905 74.422 231.06 75.0887 231.06 75.846C231.06 76.6567 230.9 77.366 230.58 77.974C230.26 78.582 229.791 79.0567 229.172 79.398C228.553 79.7393 227.796 79.91 226.9 79.91ZM226.9 78.694C227.764 78.694 228.431 78.4433 228.9 77.942C229.38 77.43 229.62 76.7527 229.62 75.91C229.62 75.0887 229.385 74.422 228.916 73.91C228.447 73.398 227.775 73.142 226.9 73.142C226.388 73.142 225.924 73.2487 225.508 73.462C225.103 73.6753 224.777 73.99 224.532 74.406C224.297 74.8113 224.18 75.3127 224.18 75.91C224.18 76.4433 224.281 76.9233 224.484 77.35C224.697 77.766 225.007 78.0967 225.412 78.342C225.817 78.5767 226.313 78.694 226.9 78.694Z" fill="#FF005A"/>
<path d="M259.08 76.822C259.08 77.4087 258.931 77.9207 258.632 78.358C258.333 78.7953 257.928 79.1367 257.416 79.382C256.915 79.6273 256.36 79.75 255.752 79.75H250.36V68.39H256.008C256.541 68.39 257 68.534 257.384 68.822C257.779 69.0993 258.077 69.462 258.28 69.91C258.493 70.3473 258.6 70.806 258.6 71.286C258.6 71.8407 258.456 72.3633 258.168 72.854C257.891 73.334 257.491 73.6913 256.968 73.926C257.619 74.118 258.131 74.4753 258.504 74.998C258.888 75.51 259.08 76.118 259.08 76.822ZM257.624 76.566C257.624 76.214 257.544 75.8887 257.384 75.59C257.235 75.2913 257.027 75.0513 256.76 74.87C256.504 74.6887 256.205 74.598 255.864 74.598H251.8V78.502H255.752C256.104 78.502 256.419 78.4113 256.696 78.23C256.984 78.0487 257.208 77.814 257.368 77.526C257.539 77.2273 257.624 76.9073 257.624 76.566ZM251.8 69.638V73.43H255.416C255.757 73.43 256.056 73.3447 256.312 73.174C256.579 73.0033 256.787 72.774 256.936 72.486C257.096 72.198 257.176 71.8833 257.176 71.542C257.176 71.1793 257.101 70.8593 256.952 70.582C256.813 70.294 256.616 70.0647 256.36 69.894C256.115 69.7233 255.832 69.638 255.512 69.638H251.8ZM265.566 79.91C264.937 79.91 264.361 79.798 263.838 79.574C263.326 79.3393 262.878 79.0193 262.494 78.614C262.121 78.2087 261.828 77.7447 261.614 77.222C261.412 76.6993 261.31 76.1447 261.31 75.558C261.31 74.7687 261.486 74.0487 261.838 73.398C262.19 72.7473 262.686 72.23 263.326 71.846C263.966 71.4513 264.708 71.254 265.55 71.254C266.372 71.254 267.086 71.4407 267.694 71.814C268.313 72.1767 268.772 72.6673 269.07 73.286L267.694 73.718C267.481 73.3233 267.182 73.0193 266.798 72.806C266.414 72.582 265.988 72.47 265.518 72.47C265.006 72.47 264.537 72.6033 264.11 72.87C263.694 73.1367 263.364 73.5047 263.118 73.974C262.873 74.4327 262.75 74.9607 262.75 75.558C262.75 76.1447 262.873 76.678 263.118 77.158C263.374 77.6273 263.71 78.0007 264.126 78.278C264.553 78.5553 265.022 78.694 265.534 78.694C265.865 78.694 266.18 78.6353 266.478 78.518C266.788 78.4007 267.054 78.246 267.278 78.054C267.513 77.8513 267.673 77.6327 267.758 77.398L269.134 77.814C268.964 78.2193 268.702 78.582 268.35 78.902C268.009 79.2113 267.598 79.4567 267.118 79.638C266.649 79.8193 266.132 79.91 265.566 79.91Z" fill="#FF005A"/>
<path d="M0 3.75C0 2.09314 1.34315 0.75 3 0.75H277C278.657 0.75 280 2.09315 280 3.75V49.75H0V3.75Z" fill="#FF005A" fill-opacity="0.4"/>
<path d="M102.54 32.75V22.63L98.36 30.31H97.04L92.84 22.63V32.75H90.6V18.55H93L97.7 27.23L102.4 18.55H104.8V32.75H102.54ZM107.845 29.69C107.845 29.0233 108.032 28.4433 108.405 27.95C108.792 27.4433 109.318 27.0567 109.985 26.79C110.652 26.51 111.425 26.37 112.305 26.37C112.772 26.37 113.245 26.4033 113.725 26.47C114.218 26.5367 114.652 26.6433 115.025 26.79V26.13C115.025 25.3967 114.805 24.8233 114.365 24.41C113.925 23.9967 113.292 23.79 112.465 23.79C111.878 23.79 111.325 23.8967 110.805 24.11C110.285 24.31 109.732 24.5967 109.145 24.97L108.405 23.49C109.098 23.0233 109.792 22.6767 110.485 22.45C111.192 22.2233 111.932 22.11 112.705 22.11C114.105 22.11 115.205 22.4833 116.005 23.23C116.818 23.9633 117.225 25.01 117.225 26.37V30.27C117.225 30.5233 117.265 30.7033 117.345 30.81C117.438 30.9167 117.592 30.9767 117.805 30.99V32.75C117.605 32.79 117.425 32.8167 117.265 32.83C117.105 32.8433 116.972 32.85 116.865 32.85C116.398 32.85 116.045 32.7367 115.805 32.51C115.565 32.2833 115.425 32.0167 115.385 31.71L115.325 31.11C114.872 31.6967 114.292 32.15 113.585 32.47C112.878 32.79 112.165 32.95 111.445 32.95C110.752 32.95 110.132 32.81 109.585 32.53C109.038 32.2367 108.612 31.8433 108.305 31.35C107.998 30.8567 107.845 30.3033 107.845 29.69ZM114.505 30.33C114.665 30.1567 114.792 29.9833 114.885 29.81C114.978 29.6367 115.025 29.4833 115.025 29.35V28.15C114.652 28.0033 114.258 27.8967 113.845 27.83C113.432 27.75 113.025 27.71 112.625 27.71C111.825 27.71 111.172 27.87 110.665 28.19C110.172 28.51 109.925 28.95 109.925 29.51C109.925 29.8167 110.005 30.11 110.165 30.39C110.338 30.67 110.578 30.8967 110.885 31.07C111.205 31.2433 111.598 31.33 112.065 31.33C112.545 31.33 113.005 31.2367 113.445 31.05C113.885 30.8633 114.238 30.6233 114.505 30.33ZM120.894 32.75V22.31H123.094V29.81L128.394 22.29H130.394V32.75H128.194V25.41L122.954 32.75H120.894ZM125.654 21.21C124.668 21.21 123.901 20.9633 123.354 20.47C122.821 19.9767 122.554 19.3567 122.554 18.61H123.994C123.994 18.9967 124.121 19.3167 124.374 19.57C124.641 19.8233 125.068 19.95 125.654 19.95C126.228 19.95 126.634 19.83 126.874 19.59C127.128 19.35 127.281 19.0233 127.334 18.61H128.774C128.774 19.3567 128.501 19.9767 127.954 20.47C127.421 20.9633 126.654 21.21 125.654 21.21ZM134.163 34.69L134.643 32.63H133.923V30.19H135.903V32.63L135.203 34.69H134.163ZM145.116 20.95C145.556 20.4833 146.022 20.09 146.516 19.77C147.009 19.4367 147.542 19.1833 148.116 19.01C148.689 18.8233 149.302 18.73 149.956 18.73C150.836 18.73 151.622 18.9167 152.316 19.29C153.022 19.65 153.582 20.1433 153.996 20.77C154.409 21.3967 154.616 22.1233 154.616 22.95C154.616 23.47 154.522 23.9833 154.336 24.49C154.149 24.9833 153.836 25.51 153.396 26.07C152.969 26.63 152.382 27.2567 151.636 27.95L146.456 32.75L145.316 31.15L150.116 26.37C150.649 25.85 151.062 25.41 151.356 25.05C151.649 24.6767 151.856 24.3433 151.976 24.05C152.109 23.7433 152.176 23.4233 152.176 23.09C152.176 22.7167 152.082 22.37 151.896 22.05C151.722 21.7167 151.462 21.45 151.116 21.25C150.769 21.05 150.329 20.95 149.796 20.95C149.356 20.95 148.949 21.0167 148.576 21.15C148.216 21.2833 147.869 21.47 147.536 21.71C147.216 21.95 146.896 22.25 146.576 22.61L145.116 20.95ZM145.316 32.75V31.15L146.516 30.65H154.816V32.75H145.316ZM157.828 25.85C157.828 24.2367 158.068 22.91 158.548 21.87C159.041 20.8167 159.688 20.03 160.488 19.51C161.301 18.99 162.195 18.73 163.168 18.73C164.141 18.73 165.035 18.99 165.848 19.51C166.661 20.03 167.308 20.8167 167.788 21.87C168.268 22.91 168.508 24.2367 168.508 25.85C168.508 27.45 168.268 28.7767 167.788 29.83C167.308 30.8833 166.661 31.67 165.848 32.19C165.035 32.71 164.141 32.97 163.168 32.97C162.195 32.97 161.301 32.71 160.488 32.19C159.688 31.67 159.041 30.8833 158.548 29.83C158.068 28.7767 157.828 27.45 157.828 25.85ZM160.268 25.85C160.268 27.01 160.395 27.9567 160.648 28.69C160.901 29.41 161.248 29.9433 161.688 30.29C162.128 30.6367 162.621 30.81 163.168 30.81C163.728 30.81 164.221 30.6367 164.648 30.29C165.088 29.9433 165.435 29.41 165.688 28.69C165.941 27.9567 166.068 27.01 166.068 25.85C166.068 24.6767 165.941 23.73 165.688 23.01C165.435 22.29 165.088 21.7567 164.648 21.41C164.221 21.0633 163.728 20.89 163.168 20.89C162.621 20.89 162.128 21.0633 161.688 21.41C161.248 21.7567 160.901 22.2967 160.648 23.03C160.395 23.75 160.268 24.69 160.268 25.85ZM171.1 20.95C171.54 20.4833 172.007 20.09 172.5 19.77C172.993 19.4367 173.527 19.1833 174.1 19.01C174.673 18.8233 175.287 18.73 175.94 18.73C176.82 18.73 177.607 18.9167 178.3 19.29C179.007 19.65 179.567 20.1433 179.98 20.77C180.393 21.3967 180.6 22.1233 180.6 22.95C180.6 23.47 180.507 23.9833 180.32 24.49C180.133 24.9833 179.82 25.51 179.38 26.07C178.953 26.63 178.367 27.2567 177.62 27.95L172.44 32.75L171.3 31.15L176.1 26.37C176.633 25.85 177.047 25.41 177.34 25.05C177.633 24.6767 177.84 24.3433 177.96 24.05C178.093 23.7433 178.16 23.4233 178.16 23.09C178.16 22.7167 178.067 22.37 177.88 22.05C177.707 21.7167 177.447 21.45 177.1 21.25C176.753 21.05 176.313 20.95 175.78 20.95C175.34 20.95 174.933 21.0167 174.56 21.15C174.2 21.2833 173.853 21.47 173.52 21.71C173.2 21.95 172.88 22.25 172.56 22.61L171.1 20.95ZM171.3 32.75V31.15L172.5 30.65H180.8V32.75H171.3ZM183.772 28.53L189.612 18.95H191.772L184.972 30.13L183.772 28.53ZM183.772 30.13V28.53L184.692 28.01H194.432V30.13H183.772ZM190.232 32.75V18.95H192.612V32.75H190.232Z" fill="black"/>
<path d="M97 116.75V115.67H105.32V116.75H97ZM97.14 104.73L100.96 102.95L101.38 103.99L97.62 105.73L97.14 104.73ZM100.58 116.75V104.01L100.96 102.95H101.82V116.75H100.58Z" fill="black"/>
<path d="M216 280.75V279.67H224.32V280.75H216ZM216.14 268.73L219.96 266.95L220.38 267.99L216.62 269.73L216.14 268.73ZM219.58 280.75V268.01L219.96 266.95H220.82V280.75H219.58Z" fill="#888888"/>
<path d="M135.3 105.03C135.687 104.537 136.1 104.123 136.54 103.79C136.98 103.457 137.453 103.21 137.96 103.05C138.467 102.877 139 102.79 139.56 102.79C140.427 102.79 141.2 102.977 141.88 103.35C142.56 103.71 143.093 104.21 143.48 104.85C143.867 105.477 144.06 106.19 144.06 106.99C144.06 107.443 143.973 107.91 143.8 108.39C143.64 108.857 143.387 109.337 143.04 109.83C142.707 110.31 142.273 110.803 141.74 111.31L136.08 116.75L135.38 115.91L140.94 110.43C141.407 109.963 141.773 109.543 142.04 109.17C142.307 108.783 142.493 108.417 142.6 108.07C142.72 107.71 142.78 107.35 142.78 106.99C142.78 106.457 142.647 105.963 142.38 105.51C142.113 105.043 141.733 104.67 141.24 104.39C140.747 104.11 140.153 103.97 139.46 103.97C139.033 103.97 138.62 104.043 138.22 104.19C137.833 104.337 137.467 104.543 137.12 104.81C136.773 105.077 136.44 105.397 136.12 105.77L135.3 105.03ZM135.38 116.75V115.91L136.3 115.67H144.26V116.75H135.38Z" fill="black"/>
<path d="M254.3 269.03C254.687 268.537 255.1 268.123 255.54 267.79C255.98 267.457 256.453 267.21 256.96 267.05C257.467 266.877 258 266.79 258.56 266.79C259.427 266.79 260.2 266.977 260.88 267.35C261.56 267.71 262.093 268.21 262.48 268.85C262.867 269.477 263.06 270.19 263.06 270.99C263.06 271.443 262.973 271.91 262.8 272.39C262.64 272.857 262.387 273.337 262.04 273.83C261.707 274.31 261.273 274.803 260.74 275.31L255.08 280.75L254.38 279.91L259.94 274.43C260.407 273.963 260.773 273.543 261.04 273.17C261.307 272.783 261.493 272.417 261.6 272.07C261.72 271.71 261.78 271.35 261.78 270.99C261.78 270.457 261.647 269.963 261.38 269.51C261.113 269.043 260.733 268.67 260.24 268.39C259.747 268.11 259.153 267.97 258.46 267.97C258.033 267.97 257.62 268.043 257.22 268.19C256.833 268.337 256.467 268.543 256.12 268.81C255.773 269.077 255.44 269.397 255.12 269.77L254.3 269.03ZM254.38 280.75V279.91L255.3 279.67H263.26V280.75H254.38Z" fill="#888888"/>
<path d="M175.2 115.07L176.08 114.21C176.52 114.703 177.033 115.09 177.62 115.37C178.207 115.65 178.86 115.79 179.58 115.79C180.607 115.79 181.453 115.517 182.12 114.97C182.787 114.423 183.12 113.67 183.12 112.71C183.12 112.11 182.953 111.603 182.62 111.19C182.3 110.763 181.853 110.443 181.28 110.23C180.707 110.003 180.06 109.89 179.34 109.89H177.76V109.07L178.82 108.83H179.8C180.587 108.83 181.327 108.977 182.02 109.27C182.727 109.55 183.3 109.977 183.74 110.55C184.18 111.123 184.4 111.843 184.4 112.71C184.4 113.59 184.18 114.343 183.74 114.97C183.3 115.597 182.713 116.077 181.98 116.41C181.26 116.743 180.46 116.91 179.58 116.91C178.687 116.91 177.88 116.757 177.16 116.45C176.44 116.143 175.787 115.683 175.2 115.07ZM175.54 104.07V102.95H183.92V103.79L182.94 104.07H175.54ZM177.76 109.07L183.14 102.95L183.92 103.79L179.26 109.07H177.76Z" fill="black"/>
<path d="M16.2 315.07L17.08 314.21C17.52 314.703 18.0333 315.09 18.62 315.37C19.2067 315.65 19.86 315.79 20.58 315.79C21.6067 315.79 22.4533 315.517 23.12 314.97C23.7867 314.423 24.12 313.67 24.12 312.71C24.12 312.11 23.9533 311.603 23.62 311.19C23.3 310.763 22.8533 310.443 22.28 310.23C21.7067 310.003 21.06 309.89 20.34 309.89H18.76V309.07L19.82 308.83H20.8C21.5867 308.83 22.3267 308.977 23.02 309.27C23.7267 309.55 24.3 309.977 24.74 310.55C25.18 311.123 25.4 311.843 25.4 312.71C25.4 313.59 25.18 314.343 24.74 314.97C24.3 315.597 23.7133 316.077 22.98 316.41C22.26 316.743 21.46 316.91 20.58 316.91C19.6867 316.91 18.88 316.757 18.16 316.45C17.44 316.143 16.7867 315.683 16.2 315.07ZM16.54 304.07V302.95H24.92V303.79L23.94 304.07H16.54ZM18.76 309.07L24.14 302.95L24.92 303.79L20.26 309.07H18.76Z" fill="#888888"/>
<path d="M214.92 112.93L221.3 102.95H222.56L215.64 113.77L214.92 112.93ZM214.92 113.77V112.93L215.84 112.69H224.72V113.77H214.92ZM221.62 116.75V102.95H222.86V116.75H221.62Z" fill="#FF005A"/>
<path d="M55.92 312.93L62.3 302.95H63.56L56.64 313.77L55.92 312.93ZM55.92 313.77V312.93L56.84 312.69H65.72V313.77H55.92ZM62.62 316.75V302.95H63.86V316.75H62.62Z" fill="#888888"/>
<path d="M255.4 115.07L256.28 114.21C256.72 114.703 257.233 115.09 257.82 115.37C258.407 115.65 259.06 115.79 259.78 115.79C260.807 115.79 261.653 115.523 262.32 114.99C262.987 114.443 263.32 113.67 263.32 112.67C263.32 111.683 262.987 110.903 262.32 110.33C261.667 109.757 260.827 109.47 259.8 109.47C259.24 109.47 258.707 109.55 258.2 109.71C257.693 109.857 257.213 110.09 256.76 110.41L256.92 109.29C257.427 108.97 257.947 108.737 258.48 108.59C259.013 108.43 259.56 108.35 260.12 108.35C260.893 108.35 261.62 108.523 262.3 108.87C262.98 109.217 263.533 109.717 263.96 110.37C264.387 111.01 264.6 111.777 264.6 112.67C264.6 113.577 264.38 114.35 263.94 114.99C263.5 115.617 262.913 116.097 262.18 116.43C261.46 116.75 260.66 116.91 259.78 116.91C258.887 116.91 258.08 116.757 257.36 116.45C256.64 116.143 255.987 115.683 255.4 115.07ZM256.16 109.99L256.62 102.95H257.7L257.22 109.97L256.76 110.41L256.16 109.99ZM256.78 102.95H263.72V104.07H257.38L256.78 102.95Z" fill="#FF005A"/>
<path d="M96.4 315.07L97.28 314.21C97.72 314.703 98.2333 315.09 98.82 315.37C99.4067 315.65 100.06 315.79 100.78 315.79C101.807 315.79 102.653 315.523 103.32 314.99C103.987 314.443 104.32 313.67 104.32 312.67C104.32 311.683 103.987 310.903 103.32 310.33C102.667 309.757 101.827 309.47 100.8 309.47C100.24 309.47 99.7067 309.55 99.2 309.71C98.6933 309.857 98.2133 310.09 97.76 310.41L97.92 309.29C98.4267 308.97 98.9467 308.737 99.48 308.59C100.013 308.43 100.56 308.35 101.12 308.35C101.893 308.35 102.62 308.523 103.3 308.87C103.98 309.217 104.533 309.717 104.96 310.37C105.387 311.01 105.6 311.777 105.6 312.67C105.6 313.577 105.38 314.35 104.94 314.99C104.5 315.617 103.913 316.097 103.18 316.43C102.46 316.75 101.66 316.91 100.78 316.91C99.8867 316.91 99.08 316.757 98.36 316.45C97.64 316.143 96.9867 315.683 96.4 315.07ZM97.16 309.99L97.62 302.95H98.7L98.22 309.97L97.76 310.41L97.16 309.99ZM97.78 302.95H104.72V304.07H98.38L97.78 302.95Z" fill="#888888"/>
<path d="M15.36 151.31C15.36 150.083 15.52 149.003 15.84 148.07C16.1733 147.137 16.6133 146.357 17.16 145.73C17.7067 145.09 18.32 144.61 19 144.29C19.68 143.957 20.38 143.79 21.1 143.79C21.5667 143.79 22.0533 143.863 22.56 144.01C23.0667 144.157 23.5733 144.383 24.08 144.69L23.5 145.67C23.1 145.403 22.7133 145.21 22.34 145.09C21.9667 144.97 21.5533 144.91 21.1 144.91C20.3933 144.91 19.6933 145.143 19 145.61C18.3067 146.077 17.7333 146.783 17.28 147.73C16.84 148.663 16.62 149.857 16.62 151.31C16.62 152.55 16.7867 153.577 17.12 154.39C17.4533 155.19 17.8933 155.79 18.44 156.19C19 156.59 19.6067 156.79 20.26 156.79C20.8867 156.79 21.4333 156.643 21.9 156.35C22.3667 156.043 22.7267 155.63 22.98 155.11C23.2467 154.577 23.38 153.977 23.38 153.31C23.38 152.683 23.24 152.137 22.96 151.67C22.6933 151.203 22.3333 150.837 21.88 150.57C21.4267 150.303 20.92 150.17 20.36 150.17C19.8267 150.17 19.3333 150.27 18.88 150.47C18.44 150.67 18.0267 150.963 17.64 151.35C17.2667 151.723 16.9067 152.177 16.56 152.71V151.41C16.7867 150.997 17.0933 150.617 17.48 150.27C17.88 149.91 18.3333 149.623 18.84 149.41C19.3467 149.183 19.88 149.07 20.44 149.07C21.2133 149.07 21.92 149.243 22.56 149.59C23.2 149.937 23.7133 150.423 24.1 151.05C24.4867 151.663 24.68 152.397 24.68 153.25C24.68 154.13 24.48 154.923 24.08 155.63C23.6933 156.323 23.16 156.877 22.48 157.29C21.8 157.703 21.0267 157.91 20.16 157.91C19.32 157.91 18.5333 157.67 17.8 157.19C17.08 156.697 16.4933 155.963 16.04 154.99C15.5867 154.003 15.36 152.777 15.36 151.31Z" fill="black"/>
<path d="M136.36 310.31C136.36 309.083 136.52 308.003 136.84 307.07C137.173 306.137 137.613 305.357 138.16 304.73C138.707 304.09 139.32 303.61 140 303.29C140.68 302.957 141.38 302.79 142.1 302.79C142.567 302.79 143.053 302.863 143.56 303.01C144.067 303.157 144.573 303.383 145.08 303.69L144.5 304.67C144.1 304.403 143.713 304.21 143.34 304.09C142.967 303.97 142.553 303.91 142.1 303.91C141.393 303.91 140.693 304.143 140 304.61C139.307 305.077 138.733 305.783 138.28 306.73C137.84 307.663 137.62 308.857 137.62 310.31C137.62 311.55 137.787 312.577 138.12 313.39C138.453 314.19 138.893 314.79 139.44 315.19C140 315.59 140.607 315.79 141.26 315.79C141.887 315.79 142.433 315.643 142.9 315.35C143.367 315.043 143.727 314.63 143.98 314.11C144.247 313.577 144.38 312.977 144.38 312.31C144.38 311.683 144.24 311.137 143.96 310.67C143.693 310.203 143.333 309.837 142.88 309.57C142.427 309.303 141.92 309.17 141.36 309.17C140.827 309.17 140.333 309.27 139.88 309.47C139.44 309.67 139.027 309.963 138.64 310.35C138.267 310.723 137.907 311.177 137.56 311.71V310.41C137.787 309.997 138.093 309.617 138.48 309.27C138.88 308.91 139.333 308.623 139.84 308.41C140.347 308.183 140.88 308.07 141.44 308.07C142.213 308.07 142.92 308.243 143.56 308.59C144.2 308.937 144.713 309.423 145.1 310.05C145.487 310.663 145.68 311.397 145.68 312.25C145.68 313.13 145.48 313.923 145.08 314.63C144.693 315.323 144.16 315.877 143.48 316.29C142.8 316.703 142.027 316.91 141.16 316.91C140.32 316.91 139.533 316.67 138.8 316.19C138.08 315.697 137.493 314.963 137.04 313.99C136.587 313.003 136.36 311.777 136.36 310.31Z" fill="#888888"/>
<path d="M56.4 145.19V143.95H65.08V144.79L64.1 145.19H56.4ZM58.8 157.75L64.2 143.95L65.08 144.79L60.16 157.75H58.8Z" fill="black"/>
<path d="M177.4 304.19V302.95H186.08V303.79L185.1 304.19H177.4ZM179.8 316.75L185.2 302.95L186.08 303.79L181.16 316.75H179.8Z" fill="#888888"/>
<path d="M96.36 154.31C96.36 153.737 96.4933 153.203 96.76 152.71C97.0267 152.203 97.4267 151.763 97.96 151.39C98.4933 151.003 99.1467 150.703 99.92 150.49L100.72 151.01C100.027 151.237 99.44 151.523 98.96 151.87C98.48 152.217 98.1133 152.59 97.86 152.99C97.62 153.39 97.5 153.79 97.5 154.19C97.5 154.683 97.64 155.13 97.92 155.53C98.2133 155.93 98.6133 156.25 99.12 156.49C99.64 156.717 100.24 156.83 100.92 156.83C101.707 156.83 102.36 156.717 102.88 156.49C103.4 156.25 103.787 155.943 104.04 155.57C104.307 155.183 104.44 154.783 104.44 154.37C104.44 154.05 104.38 153.75 104.26 153.47C104.153 153.19 103.96 152.917 103.68 152.65C103.413 152.383 103.047 152.13 102.58 151.89C102.113 151.637 101.527 151.383 100.82 151.13C99.86 150.783 99.08 150.417 98.48 150.03C97.8933 149.63 97.4667 149.197 97.2 148.73C96.9333 148.25 96.8 147.73 96.8 147.17C96.8 146.57 96.9733 146.017 97.32 145.51C97.68 144.99 98.18 144.577 98.82 144.27C99.46 143.95 100.2 143.79 101.04 143.79C101.827 143.79 102.527 143.943 103.14 144.25C103.753 144.543 104.24 144.943 104.6 145.45C104.96 145.943 105.14 146.497 105.14 147.11C105.14 147.63 105.027 148.123 104.8 148.59C104.573 149.057 104.22 149.463 103.74 149.81C103.26 150.157 102.633 150.423 101.86 150.61L101.06 150.09C101.767 149.89 102.333 149.643 102.76 149.35C103.187 149.043 103.5 148.71 103.7 148.35C103.9 147.977 104 147.61 104 147.25C104 146.837 103.873 146.45 103.62 146.09C103.38 145.73 103.04 145.437 102.6 145.21C102.16 144.983 101.64 144.87 101.04 144.87C100.387 144.87 99.8267 144.983 99.36 145.21C98.8933 145.423 98.5333 145.703 98.28 146.05C98.04 146.397 97.92 146.757 97.92 147.13C97.92 147.503 98.02 147.863 98.22 148.21C98.42 148.543 98.76 148.863 99.24 149.17C99.72 149.463 100.38 149.75 101.22 150.03C102.327 150.39 103.2 150.79 103.84 151.23C104.48 151.67 104.94 152.15 105.22 152.67C105.5 153.19 105.64 153.743 105.64 154.33C105.64 154.983 105.453 155.583 105.08 156.13C104.72 156.663 104.187 157.097 103.48 157.43C102.787 157.75 101.933 157.91 100.92 157.91C99.9867 157.91 99.18 157.757 98.5 157.45C97.82 157.143 97.2933 156.723 96.92 156.19C96.5467 155.643 96.36 155.017 96.36 154.31Z" fill="black"/>
<path d="M217.36 313.31C217.36 312.737 217.493 312.203 217.76 311.71C218.027 311.203 218.427 310.763 218.96 310.39C219.493 310.003 220.147 309.703 220.92 309.49L221.72 310.01C221.027 310.237 220.44 310.523 219.96 310.87C219.48 311.217 219.113 311.59 218.86 311.99C218.62 312.39 218.5 312.79 218.5 313.19C218.5 313.683 218.64 314.13 218.92 314.53C219.213 314.93 219.613 315.25 220.12 315.49C220.64 315.717 221.24 315.83 221.92 315.83C222.707 315.83 223.36 315.717 223.88 315.49C224.4 315.25 224.787 314.943 225.04 314.57C225.307 314.183 225.44 313.783 225.44 313.37C225.44 313.05 225.38 312.75 225.26 312.47C225.153 312.19 224.96 311.917 224.68 311.65C224.413 311.383 224.047 311.13 223.58 310.89C223.113 310.637 222.527 310.383 221.82 310.13C220.86 309.783 220.08 309.417 219.48 309.03C218.893 308.63 218.467 308.197 218.2 307.73C217.933 307.25 217.8 306.73 217.8 306.17C217.8 305.57 217.973 305.017 218.32 304.51C218.68 303.99 219.18 303.577 219.82 303.27C220.46 302.95 221.2 302.79 222.04 302.79C222.827 302.79 223.527 302.943 224.14 303.25C224.753 303.543 225.24 303.943 225.6 304.45C225.96 304.943 226.14 305.497 226.14 306.11C226.14 306.63 226.027 307.123 225.8 307.59C225.573 308.057 225.22 308.463 224.74 308.81C224.26 309.157 223.633 309.423 222.86 309.61L222.06 309.09C222.767 308.89 223.333 308.643 223.76 308.35C224.187 308.043 224.5 307.71 224.7 307.35C224.9 306.977 225 306.61 225 306.25C225 305.837 224.873 305.45 224.62 305.09C224.38 304.73 224.04 304.437 223.6 304.21C223.16 303.983 222.64 303.87 222.04 303.87C221.387 303.87 220.827 303.983 220.36 304.21C219.893 304.423 219.533 304.703 219.28 305.05C219.04 305.397 218.92 305.757 218.92 306.13C218.92 306.503 219.02 306.863 219.22 307.21C219.42 307.543 219.76 307.863 220.24 308.17C220.72 308.463 221.38 308.75 222.22 309.03C223.327 309.39 224.2 309.79 224.84 310.23C225.48 310.67 225.94 311.15 226.22 311.67C226.5 312.19 226.64 312.743 226.64 313.33C226.64 313.983 226.453 314.583 226.08 315.13C225.72 315.663 225.187 316.097 224.48 316.43C223.787 316.75 222.933 316.91 221.92 316.91C220.987 316.91 220.18 316.757 219.5 316.45C218.82 316.143 218.293 315.723 217.92 315.19C217.547 314.643 217.36 314.017 217.36 313.31Z" fill="#888888"/>
<path d="M135.32 148.45C135.32 147.57 135.513 146.783 135.9 146.09C136.3 145.383 136.84 144.823 137.52 144.41C138.213 143.997 138.987 143.79 139.84 143.79C140.68 143.79 141.467 144.037 142.2 144.53C142.933 145.01 143.52 145.743 143.96 146.73C144.413 147.703 144.64 148.923 144.64 150.39C144.64 151.603 144.473 152.683 144.14 153.63C143.82 154.563 143.387 155.35 142.84 155.99C142.293 156.617 141.68 157.097 141 157.43C140.32 157.75 139.62 157.91 138.9 157.91C138.433 157.91 137.947 157.837 137.44 157.69C136.933 157.543 136.427 157.317 135.92 157.01L136.5 156.03C136.9 156.283 137.287 156.477 137.66 156.61C138.033 156.73 138.447 156.79 138.9 156.79C139.433 156.79 139.96 156.663 140.48 156.41C141.013 156.143 141.5 155.75 141.94 155.23C142.38 154.697 142.727 154.03 142.98 153.23C143.247 152.417 143.38 151.47 143.38 150.39C143.38 149.15 143.213 148.123 142.88 147.31C142.547 146.497 142.1 145.897 141.54 145.51C140.993 145.11 140.393 144.91 139.74 144.91C139.127 144.91 138.58 145.063 138.1 145.37C137.633 145.663 137.267 146.077 137 146.61C136.747 147.13 136.62 147.723 136.62 148.39C136.62 149.003 136.753 149.55 137.02 150.03C137.3 150.497 137.667 150.863 138.12 151.13C138.587 151.397 139.093 151.53 139.64 151.53C140.453 151.53 141.16 151.31 141.76 150.87C142.36 150.417 142.92 149.79 143.44 148.99V150.29C143.213 150.703 142.9 151.09 142.5 151.45C142.113 151.797 141.667 152.083 141.16 152.31C140.667 152.523 140.133 152.63 139.56 152.63C138.8 152.63 138.093 152.457 137.44 152.11C136.8 151.763 136.287 151.277 135.9 150.65C135.513 150.023 135.32 149.29 135.32 148.45Z" fill="black"/>
<path d="M256.32 307.45C256.32 306.57 256.513 305.783 256.9 305.09C257.3 304.383 257.84 303.823 258.52 303.41C259.213 302.997 259.987 302.79 260.84 302.79C261.68 302.79 262.467 303.037 263.2 303.53C263.933 304.01 264.52 304.743 264.96 305.73C265.413 306.703 265.64 307.923 265.64 309.39C265.64 310.603 265.473 311.683 265.14 312.63C264.82 313.563 264.387 314.35 263.84 314.99C263.293 315.617 262.68 316.097 262 316.43C261.32 316.75 260.62 316.91 259.9 316.91C259.433 316.91 258.947 316.837 258.44 316.69C257.933 316.543 257.427 316.317 256.92 316.01L257.5 315.03C257.9 315.283 258.287 315.477 258.66 315.61C259.033 315.73 259.447 315.79 259.9 315.79C260.433 315.79 260.96 315.663 261.48 315.41C262.013 315.143 262.5 314.75 262.94 314.23C263.38 313.697 263.727 313.03 263.98 312.23C264.247 311.417 264.38 310.47 264.38 309.39C264.38 308.15 264.213 307.123 263.88 306.31C263.547 305.497 263.1 304.897 262.54 304.51C261.993 304.11 261.393 303.91 260.74 303.91C260.127 303.91 259.58 304.063 259.1 304.37C258.633 304.663 258.267 305.077 258 305.61C257.747 306.13 257.62 306.723 257.62 307.39C257.62 308.003 257.753 308.55 258.02 309.03C258.3 309.497 258.667 309.863 259.12 310.13C259.587 310.397 260.093 310.53 260.64 310.53C261.453 310.53 262.16 310.31 262.76 309.87C263.36 309.417 263.92 308.79 264.44 307.99V309.29C264.213 309.703 263.9 310.09 263.5 310.45C263.113 310.797 262.667 311.083 262.16 311.31C261.667 311.523 261.133 311.63 260.56 311.63C259.8 311.63 259.093 311.457 258.44 311.11C257.8 310.763 257.287 310.277 256.9 309.65C256.513 309.023 256.32 308.29 256.32 307.45Z" fill="#888888"/>
<path d="M169 157.75V156.67H177.32V157.75H169ZM169.14 145.73L172.96 143.95L173.38 144.99L169.62 146.73L169.14 145.73ZM172.58 157.75V145.01L172.96 143.95H173.82V157.75H172.58ZM180.932 150.85C180.932 149.237 181.166 147.91 181.632 146.87C182.099 145.83 182.719 145.057 183.492 144.55C184.266 144.043 185.106 143.79 186.012 143.79C186.906 143.79 187.732 144.043 188.492 144.55C189.266 145.057 189.886 145.83 190.352 146.87C190.819 147.91 191.052 149.237 191.052 150.85C191.052 152.45 190.819 153.777 190.352 154.83C189.886 155.87 189.266 156.643 188.492 157.15C187.732 157.657 186.906 157.91 186.012 157.91C185.106 157.91 184.266 157.657 183.492 157.15C182.719 156.643 182.099 155.87 181.632 154.83C181.166 153.777 180.932 152.45 180.932 150.85ZM182.212 150.85C182.212 152.237 182.379 153.37 182.712 154.25C183.046 155.117 183.492 155.757 184.052 156.17C184.626 156.57 185.272 156.77 185.992 156.77C186.712 156.77 187.359 156.57 187.932 156.17C188.506 155.757 188.952 155.117 189.272 154.25C189.606 153.37 189.772 152.237 189.772 150.85C189.772 149.463 189.606 148.337 189.272 147.47C188.952 146.59 188.506 145.95 187.932 145.55C187.359 145.137 186.712 144.93 185.992 144.93C185.272 144.93 184.626 145.137 184.052 145.55C183.492 145.95 183.046 146.59 182.712 147.47C182.379 148.337 182.212 149.463 182.212 150.85Z" fill="black"/>
<path d="M209 157.75V156.67H217.32V157.75H209ZM209.14 145.73L212.96 143.95L213.38 144.99L209.62 146.73L209.14 145.73ZM212.58 157.75V145.01L212.96 143.95H213.82V157.75H212.58ZM221.992 157.75V156.67H230.312V157.75H221.992ZM222.132 145.73L225.952 143.95L226.372 144.99L222.612 146.73L222.132 145.73ZM225.572 157.75V145.01L225.952 143.95H226.812V157.75H225.572Z" fill="#FF005A"/>
<path d="M249 157.75V156.67H257.32V157.75H249ZM249.14 145.73L252.96 143.95L253.38 144.99L249.62 146.73L249.14 145.73ZM252.58 157.75V145.01L252.96 143.95H253.82V157.75H252.58ZM261.292 146.03C261.679 145.537 262.092 145.123 262.532 144.79C262.972 144.457 263.446 144.21 263.952 144.05C264.459 143.877 264.992 143.79 265.552 143.79C266.419 143.79 267.192 143.977 267.872 144.35C268.552 144.71 269.086 145.21 269.472 145.85C269.859 146.477 270.052 147.19 270.052 147.99C270.052 148.443 269.966 148.91 269.792 149.39C269.632 149.857 269.379 150.337 269.032 150.83C268.699 151.31 268.266 151.803 267.732 152.31L262.072 157.75L261.372 156.91L266.932 151.43C267.399 150.963 267.766 150.543 268.032 150.17C268.299 149.783 268.486 149.417 268.592 149.07C268.712 148.71 268.772 148.35 268.772 147.99C268.772 147.457 268.639 146.963 268.372 146.51C268.106 146.043 267.726 145.67 267.232 145.39C266.739 145.11 266.146 144.97 265.452 144.97C265.026 144.97 264.612 145.043 264.212 145.19C263.826 145.337 263.459 145.543 263.112 145.81C262.766 146.077 262.432 146.397 262.112 146.77L261.292 146.03ZM261.372 157.75V156.91L262.292 156.67H270.252V157.75H261.372Z" fill="#FF005A"/>
<path d="M10 198.75V197.67H18.32V198.75H10ZM10.14 186.73L13.96 184.95L14.38 185.99L10.62 187.73L10.14 186.73ZM13.58 198.75V186.01L13.96 184.95H14.82V198.75H13.58ZM22.1922 197.07L23.0722 196.21C23.5122 196.703 24.0255 197.09 24.6122 197.37C25.1989 197.65 25.8522 197.79 26.5722 197.79C27.5989 197.79 28.4455 197.517 29.1122 196.97C29.7789 196.423 30.1122 195.67 30.1122 194.71C30.1122 194.11 29.9455 193.603 29.6122 193.19C29.2922 192.763 28.8455 192.443 28.2722 192.23C27.6989 192.003 27.0522 191.89 26.3322 191.89H24.7522V191.07L25.8122 190.83H26.7922C27.5789 190.83 28.3189 190.977 29.0122 191.27C29.7189 191.55 30.2922 191.977 30.7322 192.55C31.1722 193.123 31.3922 193.843 31.3922 194.71C31.3922 195.59 31.1722 196.343 30.7322 196.97C30.2922 197.597 29.7055 198.077 28.9722 198.41C28.2522 198.743 27.4522 198.91 26.5722 198.91C25.6789 198.91 24.8722 198.757 24.1522 198.45C23.4322 198.143 22.7789 197.683 22.1922 197.07ZM22.5322 186.07V184.95H30.9122V185.79L29.9322 186.07H22.5322ZM24.7522 191.07L30.1322 184.95L30.9122 185.79L26.2522 191.07H24.7522Z" fill="black"/>
<path d="M50 198.75V197.67H58.32V198.75H50ZM50.14 186.73L53.96 184.95L54.38 185.99L50.62 187.73L50.14 186.73ZM53.58 198.75V186.01L53.96 184.95H54.82V198.75H53.58ZM61.9122 194.93L68.2922 184.95H69.5522L62.6322 195.77L61.9122 194.93ZM61.9122 195.77V194.93L62.8322 194.69H71.7122V195.77H61.9122ZM68.6122 198.75V184.95H69.8522V198.75H68.6122Z" fill="black"/>
<path d="M90 198.75V197.67H98.32V198.75H90ZM90.14 186.73L93.96 184.95L94.38 185.99L90.62 187.73L90.14 186.73ZM93.58 198.75V186.01L93.96 184.95H94.82V198.75H93.58ZM102.392 197.07L103.272 196.21C103.712 196.703 104.226 197.09 104.812 197.37C105.399 197.65 106.052 197.79 106.772 197.79C107.799 197.79 108.646 197.523 109.312 196.99C109.979 196.443 110.312 195.67 110.312 194.67C110.312 193.683 109.979 192.903 109.312 192.33C108.659 191.757 107.819 191.47 106.792 191.47C106.232 191.47 105.699 191.55 105.192 191.71C104.686 191.857 104.206 192.09 103.752 192.41L103.912 191.29C104.419 190.97 104.939 190.737 105.472 190.59C106.006 190.43 106.552 190.35 107.112 190.35C107.886 190.35 108.612 190.523 109.292 190.87C109.972 191.217 110.526 191.717 110.952 192.37C111.379 193.01 111.592 193.777 111.592 194.67C111.592 195.577 111.372 196.35 110.932 196.99C110.492 197.617 109.906 198.097 109.172 198.43C108.452 198.75 107.652 198.91 106.772 198.91C105.879 198.91 105.072 198.757 104.352 198.45C103.632 198.143 102.979 197.683 102.392 197.07ZM103.152 191.99L103.612 184.95H104.692L104.212 191.97L103.752 192.41L103.152 191.99ZM103.772 184.95H110.712V186.07H104.372L103.772 184.95Z" fill="black"/>
<path d="M129 198.75V197.67H137.32V198.75H129ZM129.14 186.73L132.96 184.95L133.38 185.99L129.62 187.73L129.14 186.73ZM132.58 198.75V186.01L132.96 184.95H133.82V198.75H132.58ZM141.352 192.31C141.352 191.083 141.512 190.003 141.832 189.07C142.166 188.137 142.606 187.357 143.152 186.73C143.699 186.09 144.312 185.61 144.992 185.29C145.672 184.957 146.372 184.79 147.092 184.79C147.559 184.79 148.046 184.863 148.552 185.01C149.059 185.157 149.566 185.383 150.072 185.69L149.492 186.67C149.092 186.403 148.706 186.21 148.332 186.09C147.959 185.97 147.546 185.91 147.092 185.91C146.386 185.91 145.686 186.143 144.992 186.61C144.299 187.077 143.726 187.783 143.272 188.73C142.832 189.663 142.612 190.857 142.612 192.31C142.612 193.55 142.779 194.577 143.112 195.39C143.446 196.19 143.886 196.79 144.432 197.19C144.992 197.59 145.599 197.79 146.252 197.79C146.879 197.79 147.426 197.643 147.892 197.35C148.359 197.043 148.719 196.63 148.972 196.11C149.239 195.577 149.372 194.977 149.372 194.31C149.372 193.683 149.232 193.137 148.952 192.67C148.686 192.203 148.326 191.837 147.872 191.57C147.419 191.303 146.912 191.17 146.352 191.17C145.819 191.17 145.326 191.27 144.872 191.47C144.432 191.67 144.019 191.963 143.632 192.35C143.259 192.723 142.899 193.177 142.552 193.71V192.41C142.779 191.997 143.086 191.617 143.472 191.27C143.872 190.91 144.326 190.623 144.832 190.41C145.339 190.183 145.872 190.07 146.432 190.07C147.206 190.07 147.912 190.243 148.552 190.59C149.192 190.937 149.706 191.423 150.092 192.05C150.479 192.663 150.672 193.397 150.672 194.25C150.672 195.13 150.472 195.923 150.072 196.63C149.686 197.323 149.152 197.877 148.472 198.29C147.792 198.703 147.019 198.91 146.152 198.91C145.312 198.91 144.526 198.67 143.792 198.19C143.072 197.697 142.486 196.963 142.032 195.99C141.579 195.003 141.352 193.777 141.352 192.31Z" fill="black"/>
<path d="M169 198.75V197.67H177.32V198.75H169ZM169.14 186.73L172.96 184.95L173.38 185.99L169.62 187.73L169.14 186.73ZM172.58 198.75V186.01L172.96 184.95H173.82V198.75H172.58ZM181.392 186.19V184.95H190.072V185.79L189.092 186.19H181.392ZM183.792 198.75L189.192 184.95L190.072 185.79L185.152 198.75H183.792Z" fill="black"/>
<path d="M209 198.75V197.67H217.32V198.75H209ZM209.14 186.73L212.96 184.95L213.38 185.99L209.62 187.73L209.14 186.73ZM212.58 198.75V186.01L212.96 184.95H213.82V198.75H212.58ZM221.352 195.31C221.352 194.737 221.486 194.203 221.752 193.71C222.019 193.203 222.419 192.763 222.952 192.39C223.486 192.003 224.139 191.703 224.912 191.49L225.712 192.01C225.019 192.237 224.432 192.523 223.952 192.87C223.472 193.217 223.106 193.59 222.852 193.99C222.612 194.39 222.492 194.79 222.492 195.19C222.492 195.683 222.632 196.13 222.912 196.53C223.206 196.93 223.606 197.25 224.112 197.49C224.632 197.717 225.232 197.83 225.912 197.83C226.699 197.83 227.352 197.717 227.872 197.49C228.392 197.25 228.779 196.943 229.032 196.57C229.299 196.183 229.432 195.783 229.432 195.37C229.432 195.05 229.372 194.75 229.252 194.47C229.146 194.19 228.952 193.917 228.672 193.65C228.406 193.383 228.039 193.13 227.572 192.89C227.106 192.637 226.519 192.383 225.812 192.13C224.852 191.783 224.072 191.417 223.472 191.03C222.886 190.63 222.459 190.197 222.192 189.73C221.926 189.25 221.792 188.73 221.792 188.17C221.792 187.57 221.966 187.017 222.312 186.51C222.672 185.99 223.172 185.577 223.812 185.27C224.452 184.95 225.192 184.79 226.032 184.79C226.819 184.79 227.519 184.943 228.132 185.25C228.746 185.543 229.232 185.943 229.592 186.45C229.952 186.943 230.132 187.497 230.132 188.11C230.132 188.63 230.019 189.123 229.792 189.59C229.566 190.057 229.212 190.463 228.732 190.81C228.252 191.157 227.626 191.423 226.852 191.61L226.052 191.09C226.759 190.89 227.326 190.643 227.752 190.35C228.179 190.043 228.492 189.71 228.692 189.35C228.892 188.977 228.992 188.61 228.992 188.25C228.992 187.837 228.866 187.45 228.612 187.09C228.372 186.73 228.032 186.437 227.592 186.21C227.152 185.983 226.632 185.87 226.032 185.87C225.379 185.87 224.819 185.983 224.352 186.21C223.886 186.423 223.526 186.703 223.272 187.05C223.032 187.397 222.912 187.757 222.912 188.13C222.912 188.503 223.012 188.863 223.212 189.21C223.412 189.543 223.752 189.863 224.232 190.17C224.712 190.463 225.372 190.75 226.212 191.03C227.319 191.39 228.192 191.79 228.832 192.23C229.472 192.67 229.932 193.15 230.212 193.67C230.492 194.19 230.632 194.743 230.632 195.33C230.632 195.983 230.446 196.583 230.072 197.13C229.712 197.663 229.179 198.097 228.472 198.43C227.779 198.75 226.926 198.91 225.912 198.91C224.979 198.91 224.172 198.757 223.492 198.45C222.812 198.143 222.286 197.723 221.912 197.19C221.539 196.643 221.352 196.017 221.352 195.31Z" fill="#FF005A"/>
<path d="M249 198.75V197.67H257.32V198.75H249ZM249.14 186.73L252.96 184.95L253.38 185.99L249.62 187.73L249.14 186.73ZM252.58 198.75V186.01L252.96 184.95H253.82V198.75H252.58ZM261.312 189.45C261.312 188.57 261.506 187.783 261.892 187.09C262.292 186.383 262.832 185.823 263.512 185.41C264.206 184.997 264.979 184.79 265.832 184.79C266.672 184.79 267.459 185.037 268.192 185.53C268.926 186.01 269.512 186.743 269.952 187.73C270.406 188.703 270.632 189.923 270.632 191.39C270.632 192.603 270.466 193.683 270.132 194.63C269.812 195.563 269.379 196.35 268.832 196.99C268.286 197.617 267.672 198.097 266.992 198.43C266.312 198.75 265.612 198.91 264.892 198.91C264.426 198.91 263.939 198.837 263.432 198.69C262.926 198.543 262.419 198.317 261.912 198.01L262.492 197.03C262.892 197.283 263.279 197.477 263.652 197.61C264.026 197.73 264.439 197.79 264.892 197.79C265.426 197.79 265.952 197.663 266.472 197.41C267.006 197.143 267.492 196.75 267.932 196.23C268.372 195.697 268.719 195.03 268.972 194.23C269.239 193.417 269.372 192.47 269.372 191.39C269.372 190.15 269.206 189.123 268.872 188.31C268.539 187.497 268.092 186.897 267.532 186.51C266.986 186.11 266.386 185.91 265.732 185.91C265.119 185.91 264.572 186.063 264.092 186.37C263.626 186.663 263.259 187.077 262.992 187.61C262.739 188.13 262.612 188.723 262.612 189.39C262.612 190.003 262.746 190.55 263.012 191.03C263.292 191.497 263.659 191.863 264.112 192.13C264.579 192.397 265.086 192.53 265.632 192.53C266.446 192.53 267.152 192.31 267.752 191.87C268.352 191.417 268.912 190.79 269.432 189.99V191.29C269.206 191.703 268.892 192.09 268.492 192.45C268.106 192.797 267.659 193.083 267.152 193.31C266.659 193.523 266.126 193.63 265.552 193.63C264.792 193.63 264.086 193.457 263.432 193.11C262.792 192.763 262.279 192.277 261.892 191.65C261.506 191.023 261.312 190.29 261.312 189.45Z" fill="#FF005A"/>
<path d="M9.3 228.03C9.68667 227.537 10.1 227.123 10.54 226.79C10.98 226.457 11.4533 226.21 11.96 226.05C12.4667 225.877 13 225.79 13.56 225.79C14.4267 225.79 15.2 225.977 15.88 226.35C16.56 226.71 17.0933 227.21 17.48 227.85C17.8667 228.477 18.06 229.19 18.06 229.99C18.06 230.443 17.9733 230.91 17.8 231.39C17.64 231.857 17.3867 232.337 17.04 232.83C16.7067 233.31 16.2733 233.803 15.74 234.31L10.08 239.75L9.38 238.91L14.94 233.43C15.4067 232.963 15.7733 232.543 16.04 232.17C16.3067 231.783 16.4933 231.417 16.6 231.07C16.72 230.71 16.78 230.35 16.78 229.99C16.78 229.457 16.6467 228.963 16.38 228.51C16.1133 228.043 15.7333 227.67 15.24 227.39C14.7467 227.11 14.1533 226.97 13.46 226.97C13.0333 226.97 12.62 227.043 12.22 227.19C11.8333 227.337 11.4667 227.543 11.12 227.81C10.7733 228.077 10.44 228.397 10.12 228.77L9.3 228.03ZM9.38 239.75V238.91L10.3 238.67H18.26V239.75H9.38ZM21.9322 232.85C21.9322 231.237 22.1655 229.91 22.6322 228.87C23.0989 227.83 23.7189 227.057 24.4922 226.55C25.2655 226.043 26.1055 225.79 27.0122 225.79C27.9055 225.79 28.7322 226.043 29.4922 226.55C30.2655 227.057 30.8855 227.83 31.3522 228.87C31.8189 229.91 32.0522 231.237 32.0522 232.85C32.0522 234.45 31.8189 235.777 31.3522 236.83C30.8855 237.87 30.2655 238.643 29.4922 239.15C28.7322 239.657 27.9055 239.91 27.0122 239.91C26.1055 239.91 25.2655 239.657 24.4922 239.15C23.7189 238.643 23.0989 237.87 22.6322 236.83C22.1655 235.777 21.9322 234.45 21.9322 232.85ZM23.2122 232.85C23.2122 234.237 23.3789 235.37 23.7122 236.25C24.0455 237.117 24.4922 237.757 25.0522 238.17C25.6255 238.57 26.2722 238.77 26.9922 238.77C27.7122 238.77 28.3589 238.57 28.9322 238.17C29.5055 237.757 29.9522 237.117 30.2722 236.25C30.6055 235.37 30.7722 234.237 30.7722 232.85C30.7722 231.463 30.6055 230.337 30.2722 229.47C29.9522 228.59 29.5055 227.95 28.9322 227.55C28.3589 227.137 27.7122 226.93 26.9922 226.93C26.2722 226.93 25.6255 227.137 25.0522 227.55C24.4922 227.95 24.0455 228.59 23.7122 229.47C23.3789 230.337 23.2122 231.463 23.2122 232.85Z" fill="black"/>
<path d="M49.3 228.03C49.6867 227.537 50.1 227.123 50.54 226.79C50.98 226.457 51.4533 226.21 51.96 226.05C52.4667 225.877 53 225.79 53.56 225.79C54.4267 225.79 55.2 225.977 55.88 226.35C56.56 226.71 57.0933 227.21 57.48 227.85C57.8667 228.477 58.06 229.19 58.06 229.99C58.06 230.443 57.9733 230.91 57.8 231.39C57.64 231.857 57.3867 232.337 57.04 232.83C56.7067 233.31 56.2733 233.803 55.74 234.31L50.08 239.75L49.38 238.91L54.94 233.43C55.4067 232.963 55.7733 232.543 56.04 232.17C56.3067 231.783 56.4933 231.417 56.6 231.07C56.72 230.71 56.78 230.35 56.78 229.99C56.78 229.457 56.6467 228.963 56.38 228.51C56.1133 228.043 55.7333 227.67 55.24 227.39C54.7467 227.11 54.1533 226.97 53.46 226.97C53.0333 226.97 52.62 227.043 52.22 227.19C51.8333 227.337 51.4667 227.543 51.12 227.81C50.7733 228.077 50.44 228.397 50.12 228.77L49.3 228.03ZM49.38 239.75V238.91L50.3 238.67H58.26V239.75H49.38ZM62.9922 239.75V238.67H71.3122V239.75H62.9922ZM63.1322 227.73L66.9522 225.95L67.3722 226.99L63.6122 228.73L63.1322 227.73ZM66.5722 239.75V227.01L66.9522 225.95H67.8122V239.75H66.5722Z" fill="black"/>
<path d="M89.3 228.03C89.6867 227.537 90.1 227.123 90.54 226.79C90.98 226.457 91.4533 226.21 91.96 226.05C92.4667 225.877 93 225.79 93.56 225.79C94.4267 225.79 95.2 225.977 95.88 226.35C96.56 226.71 97.0933 227.21 97.48 227.85C97.8667 228.477 98.06 229.19 98.06 229.99C98.06 230.443 97.9733 230.91 97.8 231.39C97.64 231.857 97.3867 232.337 97.04 232.83C96.7067 233.31 96.2733 233.803 95.74 234.31L90.08 239.75L89.38 238.91L94.94 233.43C95.4067 232.963 95.7733 232.543 96.04 232.17C96.3067 231.783 96.4933 231.417 96.6 231.07C96.72 230.71 96.78 230.35 96.78 229.99C96.78 229.457 96.6467 228.963 96.38 228.51C96.1133 228.043 95.7333 227.67 95.24 227.39C94.7467 227.11 94.1533 226.97 93.46 226.97C93.0333 226.97 92.62 227.043 92.22 227.19C91.8333 227.337 91.4667 227.543 91.12 227.81C90.7733 228.077 90.44 228.397 90.12 228.77L89.3 228.03ZM89.38 239.75V238.91L90.3 238.67H98.26V239.75H89.38ZM102.292 228.03C102.679 227.537 103.092 227.123 103.532 226.79C103.972 226.457 104.446 226.21 104.952 226.05C105.459 225.877 105.992 225.79 106.552 225.79C107.419 225.79 108.192 225.977 108.872 226.35C109.552 226.71 110.086 227.21 110.472 227.85C110.859 228.477 111.052 229.19 111.052 229.99C111.052 230.443 110.966 230.91 110.792 231.39C110.632 231.857 110.379 232.337 110.032 232.83C109.699 233.31 109.266 233.803 108.732 234.31L103.072 239.75L102.372 238.91L107.932 233.43C108.399 232.963 108.766 232.543 109.032 232.17C109.299 231.783 109.486 231.417 109.592 231.07C109.712 230.71 109.772 230.35 109.772 229.99C109.772 229.457 109.639 228.963 109.372 228.51C109.106 228.043 108.726 227.67 108.232 227.39C107.739 227.11 107.146 226.97 106.452 226.97C106.026 226.97 105.612 227.043 105.212 227.19C104.826 227.337 104.459 227.543 104.112 227.81C103.766 228.077 103.432 228.397 103.112 228.77L102.292 228.03ZM102.372 239.75V238.91L103.292 238.67H111.252V239.75H102.372Z" fill="black"/>
<path d="M128.3 228.03C128.687 227.537 129.1 227.123 129.54 226.79C129.98 226.457 130.453 226.21 130.96 226.05C131.467 225.877 132 225.79 132.56 225.79C133.427 225.79 134.2 225.977 134.88 226.35C135.56 226.71 136.093 227.21 136.48 227.85C136.867 228.477 137.06 229.19 137.06 229.99C137.06 230.443 136.973 230.91 136.8 231.39C136.64 231.857 136.387 232.337 136.04 232.83C135.707 233.31 135.273 233.803 134.74 234.31L129.08 239.75L128.38 238.91L133.94 233.43C134.407 232.963 134.773 232.543 135.04 232.17C135.307 231.783 135.493 231.417 135.6 231.07C135.72 230.71 135.78 230.35 135.78 229.99C135.78 229.457 135.647 228.963 135.38 228.51C135.113 228.043 134.733 227.67 134.24 227.39C133.747 227.11 133.153 226.97 132.46 226.97C132.033 226.97 131.62 227.043 131.22 227.19C130.833 227.337 130.467 227.543 130.12 227.81C129.773 228.077 129.44 228.397 129.12 228.77L128.3 228.03ZM128.38 239.75V238.91L129.3 238.67H137.26V239.75H128.38ZM141.192 238.07L142.072 237.21C142.512 237.703 143.026 238.09 143.612 238.37C144.199 238.65 144.852 238.79 145.572 238.79C146.599 238.79 147.446 238.517 148.112 237.97C148.779 237.423 149.112 236.67 149.112 235.71C149.112 235.11 148.946 234.603 148.612 234.19C148.292 233.763 147.846 233.443 147.272 233.23C146.699 233.003 146.052 232.89 145.332 232.89H143.752V232.07L144.812 231.83H145.792C146.579 231.83 147.319 231.977 148.012 232.27C148.719 232.55 149.292 232.977 149.732 233.55C150.172 234.123 150.392 234.843 150.392 235.71C150.392 236.59 150.172 237.343 149.732 237.97C149.292 238.597 148.706 239.077 147.972 239.41C147.252 239.743 146.452 239.91 145.572 239.91C144.679 239.91 143.872 239.757 143.152 239.45C142.432 239.143 141.779 238.683 141.192 238.07ZM141.532 227.07V225.95H149.912V226.79L148.932 227.07H141.532ZM143.752 232.07L149.132 225.95L149.912 226.79L145.252 232.07H143.752Z" fill="black"/>
<path d="M168.3 228.03C168.687 227.537 169.1 227.123 169.54 226.79C169.98 226.457 170.453 226.21 170.96 226.05C171.467 225.877 172 225.79 172.56 225.79C173.427 225.79 174.2 225.977 174.88 226.35C175.56 226.71 176.093 227.21 176.48 227.85C176.867 228.477 177.06 229.19 177.06 229.99C177.06 230.443 176.973 230.91 176.8 231.39C176.64 231.857 176.387 232.337 176.04 232.83C175.707 233.31 175.273 233.803 174.74 234.31L169.08 239.75L168.38 238.91L173.94 233.43C174.407 232.963 174.773 232.543 175.04 232.17C175.307 231.783 175.493 231.417 175.6 231.07C175.72 230.71 175.78 230.35 175.78 229.99C175.78 229.457 175.647 228.963 175.38 228.51C175.113 228.043 174.733 227.67 174.24 227.39C173.747 227.11 173.153 226.97 172.46 226.97C172.033 226.97 171.62 227.043 171.22 227.19C170.833 227.337 170.467 227.543 170.12 227.81C169.773 228.077 169.44 228.397 169.12 228.77L168.3 228.03ZM168.38 239.75V238.91L169.3 238.67H177.26V239.75H168.38ZM180.912 235.93L187.292 225.95H188.552L181.632 236.77L180.912 235.93ZM180.912 236.77V235.93L181.832 235.69H190.712V236.77H180.912ZM187.612 239.75V225.95H188.852V239.75H187.612Z" fill="black"/>
<path d="M208.3 228.03C208.687 227.537 209.1 227.123 209.54 226.79C209.98 226.457 210.453 226.21 210.96 226.05C211.467 225.877 212 225.79 212.56 225.79C213.427 225.79 214.2 225.977 214.88 226.35C215.56 226.71 216.093 227.21 216.48 227.85C216.867 228.477 217.06 229.19 217.06 229.99C217.06 230.443 216.973 230.91 216.8 231.39C216.64 231.857 216.387 232.337 216.04 232.83C215.707 233.31 215.273 233.803 214.74 234.31L209.08 239.75L208.38 238.91L213.94 233.43C214.407 232.963 214.773 232.543 215.04 232.17C215.307 231.783 215.493 231.417 215.6 231.07C215.72 230.71 215.78 230.35 215.78 229.99C215.78 229.457 215.647 228.963 215.38 228.51C215.113 228.043 214.733 227.67 214.24 227.39C213.747 227.11 213.153 226.97 212.46 226.97C212.033 226.97 211.62 227.043 211.22 227.19C210.833 227.337 210.467 227.543 210.12 227.81C209.773 228.077 209.44 228.397 209.12 228.77L208.3 228.03ZM208.38 239.75V238.91L209.3 238.67H217.26V239.75H208.38ZM221.392 238.07L222.272 237.21C222.712 237.703 223.226 238.09 223.812 238.37C224.399 238.65 225.052 238.79 225.772 238.79C226.799 238.79 227.646 238.523 228.312 237.99C228.979 237.443 229.312 236.67 229.312 235.67C229.312 234.683 228.979 233.903 228.312 233.33C227.659 232.757 226.819 232.47 225.792 232.47C225.232 232.47 224.699 232.55 224.192 232.71C223.686 232.857 223.206 233.09 222.752 233.41L222.912 232.29C223.419 231.97 223.939 231.737 224.472 231.59C225.006 231.43 225.552 231.35 226.112 231.35C226.886 231.35 227.612 231.523 228.292 231.87C228.972 232.217 229.526 232.717 229.952 233.37C230.379 234.01 230.592 234.777 230.592 235.67C230.592 236.577 230.372 237.35 229.932 237.99C229.492 238.617 228.906 239.097 228.172 239.43C227.452 239.75 226.652 239.91 225.772 239.91C224.879 239.91 224.072 239.757 223.352 239.45C222.632 239.143 221.979 238.683 221.392 238.07ZM222.152 232.99L222.612 225.95H223.692L223.212 232.97L222.752 233.41L222.152 232.99ZM222.772 225.95H229.712V227.07H223.372L222.772 225.95Z" fill="#FF005A"/>
<path d="M248.3 228.03C248.687 227.537 249.1 227.123 249.54 226.79C249.98 226.457 250.453 226.21 250.96 226.05C251.467 225.877 252 225.79 252.56 225.79C253.427 225.79 254.2 225.977 254.88 226.35C255.56 226.71 256.093 227.21 256.48 227.85C256.867 228.477 257.06 229.19 257.06 229.99C257.06 230.443 256.973 230.91 256.8 231.39C256.64 231.857 256.387 232.337 256.04 232.83C255.707 233.31 255.273 233.803 254.74 234.31L249.08 239.75L248.38 238.91L253.94 233.43C254.407 232.963 254.773 232.543 255.04 232.17C255.307 231.783 255.493 231.417 255.6 231.07C255.72 230.71 255.78 230.35 255.78 229.99C255.78 229.457 255.647 228.963 255.38 228.51C255.113 228.043 254.733 227.67 254.24 227.39C253.747 227.11 253.153 226.97 252.46 226.97C252.033 226.97 251.62 227.043 251.22 227.19C250.833 227.337 250.467 227.543 250.12 227.81C249.773 228.077 249.44 228.397 249.12 228.77L248.3 228.03ZM248.38 239.75V238.91L249.3 238.67H257.26V239.75H248.38ZM261.352 233.31C261.352 232.083 261.512 231.003 261.832 230.07C262.166 229.137 262.606 228.357 263.152 227.73C263.699 227.09 264.312 226.61 264.992 226.29C265.672 225.957 266.372 225.79 267.092 225.79C267.559 225.79 268.046 225.863 268.552 226.01C269.059 226.157 269.566 226.383 270.072 226.69L269.492 227.67C269.092 227.403 268.706 227.21 268.332 227.09C267.959 226.97 267.546 226.91 267.092 226.91C266.386 226.91 265.686 227.143 264.992 227.61C264.299 228.077 263.726 228.783 263.272 229.73C262.832 230.663 262.612 231.857 262.612 233.31C262.612 234.55 262.779 235.577 263.112 236.39C263.446 237.19 263.886 237.79 264.432 238.19C264.992 238.59 265.599 238.79 266.252 238.79C266.879 238.79 267.426 238.643 267.892 238.35C268.359 238.043 268.719 237.63 268.972 237.11C269.239 236.577 269.372 235.977 269.372 235.31C269.372 234.683 269.232 234.137 268.952 233.67C268.686 233.203 268.326 232.837 267.872 232.57C267.419 232.303 266.912 232.17 266.352 232.17C265.819 232.17 265.326 232.27 264.872 232.47C264.432 232.67 264.019 232.963 263.632 233.35C263.259 233.723 262.899 234.177 262.552 234.71V233.41C262.779 232.997 263.086 232.617 263.472 232.27C263.872 231.91 264.326 231.623 264.832 231.41C265.339 231.183 265.872 231.07 266.432 231.07C267.206 231.07 267.912 231.243 268.552 231.59C269.192 231.937 269.706 232.423 270.092 233.05C270.479 233.663 270.672 234.397 270.672 235.25C270.672 236.13 270.472 236.923 270.072 237.63C269.686 238.323 269.152 238.877 268.472 239.29C267.792 239.703 267.019 239.91 266.152 239.91C265.312 239.91 264.526 239.67 263.792 239.19C263.072 238.697 262.486 237.963 262.032 236.99C261.579 236.003 261.352 234.777 261.352 233.31Z" fill="#FF005A"/>
<path d="M9.3 269.03C9.68667 268.537 10.1 268.123 10.54 267.79C10.98 267.457 11.4533 267.21 11.96 267.05C12.4667 266.877 13 266.79 13.56 266.79C14.4267 266.79 15.2 266.977 15.88 267.35C16.56 267.71 17.0933 268.21 17.48 268.85C17.8667 269.477 18.06 270.19 18.06 270.99C18.06 271.443 17.9733 271.91 17.8 272.39C17.64 272.857 17.3867 273.337 17.04 273.83C16.7067 274.31 16.2733 274.803 15.74 275.31L10.08 280.75L9.38 279.91L14.94 274.43C15.4067 273.963 15.7733 273.543 16.04 273.17C16.3067 272.783 16.4933 272.417 16.6 272.07C16.72 271.71 16.78 271.35 16.78 270.99C16.78 270.457 16.6467 269.963 16.38 269.51C16.1133 269.043 15.7333 268.67 15.24 268.39C14.7467 268.11 14.1533 267.97 13.46 267.97C13.0333 267.97 12.62 268.043 12.22 268.19C11.8333 268.337 11.4667 268.543 11.12 268.81C10.7733 269.077 10.44 269.397 10.12 269.77L9.3 269.03ZM9.38 280.75V279.91L10.3 279.67H18.26V280.75H9.38ZM22.3922 268.19V266.95H31.0722V267.79L30.0922 268.19H22.3922ZM24.7922 280.75L30.1922 266.95L31.0722 267.79L26.1522 280.75H24.7922Z" fill="black"/>
<path d="M49.3 269.03C49.6867 268.537 50.1 268.123 50.54 267.79C50.98 267.457 51.4533 267.21 51.96 267.05C52.4667 266.877 53 266.79 53.56 266.79C54.4267 266.79 55.2 266.977 55.88 267.35C56.56 267.71 57.0933 268.21 57.48 268.85C57.8667 269.477 58.06 270.19 58.06 270.99C58.06 271.443 57.9733 271.91 57.8 272.39C57.64 272.857 57.3867 273.337 57.04 273.83C56.7067 274.31 56.2733 274.803 55.74 275.31L50.08 280.75L49.38 279.91L54.94 274.43C55.4067 273.963 55.7733 273.543 56.04 273.17C56.3067 272.783 56.4933 272.417 56.6 272.07C56.72 271.71 56.78 271.35 56.78 270.99C56.78 270.457 56.6467 269.963 56.38 269.51C56.1133 269.043 55.7333 268.67 55.24 268.39C54.7467 268.11 54.1533 267.97 53.46 267.97C53.0333 267.97 52.62 268.043 52.22 268.19C51.8333 268.337 51.4667 268.543 51.12 268.81C50.7733 269.077 50.44 269.397 50.12 269.77L49.3 269.03ZM49.38 280.75V279.91L50.3 279.67H58.26V280.75H49.38ZM62.3522 277.31C62.3522 276.737 62.4855 276.203 62.7522 275.71C63.0189 275.203 63.4189 274.763 63.9522 274.39C64.4855 274.003 65.1389 273.703 65.9122 273.49L66.7122 274.01C66.0189 274.237 65.4322 274.523 64.9522 274.87C64.4722 275.217 64.1055 275.59 63.8522 275.99C63.6122 276.39 63.4922 276.79 63.4922 277.19C63.4922 277.683 63.6322 278.13 63.9122 278.53C64.2055 278.93 64.6055 279.25 65.1122 279.49C65.6322 279.717 66.2322 279.83 66.9122 279.83C67.6989 279.83 68.3522 279.717 68.8722 279.49C69.3922 279.25 69.7789 278.943 70.0322 278.57C70.2989 278.183 70.4322 277.783 70.4322 277.37C70.4322 277.05 70.3722 276.75 70.2522 276.47C70.1455 276.19 69.9522 275.917 69.6722 275.65C69.4055 275.383 69.0389 275.13 68.5722 274.89C68.1055 274.637 67.5189 274.383 66.8122 274.13C65.8522 273.783 65.0722 273.417 64.4722 273.03C63.8855 272.63 63.4589 272.197 63.1922 271.73C62.9255 271.25 62.7922 270.73 62.7922 270.17C62.7922 269.57 62.9655 269.017 63.3122 268.51C63.6722 267.99 64.1722 267.577 64.8122 267.27C65.4522 266.95 66.1922 266.79 67.0322 266.79C67.8189 266.79 68.5189 266.943 69.1322 267.25C69.7455 267.543 70.2322 267.943 70.5922 268.45C70.9522 268.943 71.1322 269.497 71.1322 270.11C71.1322 270.63 71.0189 271.123 70.7922 271.59C70.5655 272.057 70.2122 272.463 69.7322 272.81C69.2522 273.157 68.6255 273.423 67.8522 273.61L67.0522 273.09C67.7589 272.89 68.3255 272.643 68.7522 272.35C69.1789 272.043 69.4922 271.71 69.6922 271.35C69.8922 270.977 69.9922 270.61 69.9922 270.25C69.9922 269.837 69.8655 269.45 69.6122 269.09C69.3722 268.73 69.0322 268.437 68.5922 268.21C68.1522 267.983 67.6322 267.87 67.0322 267.87C66.3789 267.87 65.8189 267.983 65.3522 268.21C64.8855 268.423 64.5255 268.703 64.2722 269.05C64.0322 269.397 63.9122 269.757 63.9122 270.13C63.9122 270.503 64.0122 270.863 64.2122 271.21C64.4122 271.543 64.7522 271.863 65.2322 272.17C65.7122 272.463 66.3722 272.75 67.2122 273.03C68.3189 273.39 69.1922 273.79 69.8322 274.23C70.4722 274.67 70.9322 275.15 71.2122 275.67C71.4922 276.19 71.6322 276.743 71.6322 277.33C71.6322 277.983 71.4455 278.583 71.0722 279.13C70.7122 279.663 70.1789 280.097 69.4722 280.43C68.7789 280.75 67.9255 280.91 66.9122 280.91C65.9789 280.91 65.1722 280.757 64.4922 280.45C63.8122 280.143 63.2855 279.723 62.9122 279.19C62.5389 278.643 62.3522 278.017 62.3522 277.31Z" fill="black"/>
<path d="M89.3 269.03C89.6867 268.537 90.1 268.123 90.54 267.79C90.98 267.457 91.4533 267.21 91.96 267.05C92.4667 266.877 93 266.79 93.56 266.79C94.4267 266.79 95.2 266.977 95.88 267.35C96.56 267.71 97.0933 268.21 97.48 268.85C97.8667 269.477 98.06 270.19 98.06 270.99C98.06 271.443 97.9733 271.91 97.8 272.39C97.64 272.857 97.3867 273.337 97.04 273.83C96.7067 274.31 96.2733 274.803 95.74 275.31L90.08 280.75L89.38 279.91L94.94 274.43C95.4067 273.963 95.7733 273.543 96.04 273.17C96.3067 272.783 96.4933 272.417 96.6 272.07C96.72 271.71 96.78 271.35 96.78 270.99C96.78 270.457 96.6467 269.963 96.38 269.51C96.1133 269.043 95.7333 268.67 95.24 268.39C94.7467 268.11 94.1533 267.97 93.46 267.97C93.0333 267.97 92.62 268.043 92.22 268.19C91.8333 268.337 91.4667 268.543 91.12 268.81C90.7733 269.077 90.44 269.397 90.12 269.77L89.3 269.03ZM89.38 280.75V279.91L90.3 279.67H98.26V280.75H89.38ZM102.312 271.45C102.312 270.57 102.506 269.783 102.892 269.09C103.292 268.383 103.832 267.823 104.512 267.41C105.206 266.997 105.979 266.79 106.832 266.79C107.672 266.79 108.459 267.037 109.192 267.53C109.926 268.01 110.512 268.743 110.952 269.73C111.406 270.703 111.632 271.923 111.632 273.39C111.632 274.603 111.466 275.683 111.132 276.63C110.812 277.563 110.379 278.35 109.832 278.99C109.286 279.617 108.672 280.097 107.992 280.43C107.312 280.75 106.612 280.91 105.892 280.91C105.426 280.91 104.939 280.837 104.432 280.69C103.926 280.543 103.419 280.317 102.912 280.01L103.492 279.03C103.892 279.283 104.279 279.477 104.652 279.61C105.026 279.73 105.439 279.79 105.892 279.79C106.426 279.79 106.952 279.663 107.472 279.41C108.006 279.143 108.492 278.75 108.932 278.23C109.372 277.697 109.719 277.03 109.972 276.23C110.239 275.417 110.372 274.47 110.372 273.39C110.372 272.15 110.206 271.123 109.872 270.31C109.539 269.497 109.092 268.897 108.532 268.51C107.986 268.11 107.386 267.91 106.732 267.91C106.119 267.91 105.572 268.063 105.092 268.37C104.626 268.663 104.259 269.077 103.992 269.61C103.739 270.13 103.612 270.723 103.612 271.39C103.612 272.003 103.746 272.55 104.012 273.03C104.292 273.497 104.659 273.863 105.112 274.13C105.579 274.397 106.086 274.53 106.632 274.53C107.446 274.53 108.152 274.31 108.752 273.87C109.352 273.417 109.912 272.79 110.432 271.99V273.29C110.206 273.703 109.892 274.09 109.492 274.45C109.106 274.797 108.659 275.083 108.152 275.31C107.659 275.523 107.126 275.63 106.552 275.63C105.792 275.63 105.086 275.457 104.432 275.11C103.792 274.763 103.279 274.277 102.892 273.65C102.506 273.023 102.312 272.29 102.312 271.45Z" fill="black"/>
<path d="M9.3 105.03C9.68667 104.537 10.1 104.123 10.54 103.79C10.98 103.457 11.4533 103.21 11.96 103.05C12.4667 102.877 13 102.79 13.56 102.79C14.4267 102.79 15.2 102.977 15.88 103.35C16.56 103.71 17.0933 104.21 17.48 104.85C17.8667 105.477 18.06 106.19 18.06 106.99C18.06 107.443 17.9733 107.91 17.8 108.39C17.64 108.857 17.3867 109.337 17.04 109.83C16.7067 110.31 16.2733 110.803 15.74 111.31L10.08 116.75L9.38 115.91L14.94 110.43C15.4067 109.963 15.7733 109.543 16.04 109.17C16.3067 108.783 16.4933 108.417 16.6 108.07C16.72 107.71 16.78 107.35 16.78 106.99C16.78 106.457 16.6467 105.963 16.38 105.51C16.1133 105.043 15.7333 104.67 15.24 104.39C14.7467 104.11 14.1533 103.97 13.46 103.97C13.0333 103.97 12.62 104.043 12.22 104.19C11.8333 104.337 11.4667 104.543 11.12 104.81C10.7733 105.077 10.44 105.397 10.12 105.77L9.3 105.03ZM9.38 116.75V115.91L10.3 115.67H18.26V116.75H9.38ZM22.3122 107.45C22.3122 106.57 22.5055 105.783 22.8922 105.09C23.2922 104.383 23.8322 103.823 24.5122 103.41C25.2055 102.997 25.9789 102.79 26.8322 102.79C27.6722 102.79 28.4589 103.037 29.1922 103.53C29.9255 104.01 30.5122 104.743 30.9522 105.73C31.4055 106.703 31.6322 107.923 31.6322 109.39C31.6322 110.603 31.4655 111.683 31.1322 112.63C30.8122 113.563 30.3789 114.35 29.8322 114.99C29.2855 115.617 28.6722 116.097 27.9922 116.43C27.3122 116.75 26.6122 116.91 25.8922 116.91C25.4255 116.91 24.9389 116.837 24.4322 116.69C23.9255 116.543 23.4189 116.317 22.9122 116.01L23.4922 115.03C23.8922 115.283 24.2789 115.477 24.6522 115.61C25.0255 115.73 25.4389 115.79 25.8922 115.79C26.4255 115.79 26.9522 115.663 27.4722 115.41C28.0055 115.143 28.4922 114.75 28.9322 114.23C29.3722 113.697 29.7189 113.03 29.9722 112.23C30.2389 111.417 30.3722 110.47 30.3722 109.39C30.3722 108.15 30.2055 107.123 29.8722 106.31C29.5389 105.497 29.0922 104.897 28.5322 104.51C27.9855 104.11 27.3855 103.91 26.7322 103.91C26.1189 103.91 25.5722 104.063 25.0922 104.37C24.6255 104.663 24.2589 105.077 23.9922 105.61C23.7389 106.13 23.6122 106.723 23.6122 107.39C23.6122 108.003 23.7455 108.55 24.0122 109.03C24.2922 109.497 24.6589 109.863 25.1122 110.13C25.5789 110.397 26.0855 110.53 26.6322 110.53C27.4455 110.53 28.1522 110.31 28.7522 109.87C29.3522 109.417 29.9122 108.79 30.4322 107.99V109.29C30.2055 109.703 29.8922 110.09 29.4922 110.45C29.1055 110.797 28.6589 111.083 28.1522 111.31C27.6589 111.523 27.1255 111.63 26.5522 111.63C25.7922 111.63 25.0855 111.457 24.4322 111.11C23.7922 110.763 23.2789 110.277 22.8922 109.65C22.5055 109.023 22.3122 108.29 22.3122 107.45Z" fill="#888888"/>
<path d="M128.2 279.07L129.08 278.21C129.52 278.703 130.033 279.09 130.62 279.37C131.207 279.65 131.86 279.79 132.58 279.79C133.607 279.79 134.453 279.517 135.12 278.97C135.787 278.423 136.12 277.67 136.12 276.71C136.12 276.11 135.953 275.603 135.62 275.19C135.3 274.763 134.853 274.443 134.28 274.23C133.707 274.003 133.06 273.89 132.34 273.89H130.76V273.07L131.82 272.83H132.8C133.587 272.83 134.327 272.977 135.02 273.27C135.727 273.55 136.3 273.977 136.74 274.55C137.18 275.123 137.4 275.843 137.4 276.71C137.4 277.59 137.18 278.343 136.74 278.97C136.3 279.597 135.713 280.077 134.98 280.41C134.26 280.743 133.46 280.91 132.58 280.91C131.687 280.91 130.88 280.757 130.16 280.45C129.44 280.143 128.787 279.683 128.2 279.07ZM128.54 268.07V266.95H136.92V267.79L135.94 268.07H128.54ZM130.76 273.07L136.14 266.95L136.92 267.79L132.26 273.07H130.76ZM140.932 273.85C140.932 272.237 141.166 270.91 141.632 269.87C142.099 268.83 142.719 268.057 143.492 267.55C144.266 267.043 145.106 266.79 146.012 266.79C146.906 266.79 147.732 267.043 148.492 267.55C149.266 268.057 149.886 268.83 150.352 269.87C150.819 270.91 151.052 272.237 151.052 273.85C151.052 275.45 150.819 276.777 150.352 277.83C149.886 278.87 149.266 279.643 148.492 280.15C147.732 280.657 146.906 280.91 146.012 280.91C145.106 280.91 144.266 280.657 143.492 280.15C142.719 279.643 142.099 278.87 141.632 277.83C141.166 276.777 140.932 275.45 140.932 273.85ZM142.212 273.85C142.212 275.237 142.379 276.37 142.712 277.25C143.046 278.117 143.492 278.757 144.052 279.17C144.626 279.57 145.272 279.77 145.992 279.77C146.712 279.77 147.359 279.57 147.932 279.17C148.506 278.757 148.952 278.117 149.272 277.25C149.606 276.37 149.772 275.237 149.772 273.85C149.772 272.463 149.606 271.337 149.272 270.47C148.952 269.59 148.506 268.95 147.932 268.55C147.359 268.137 146.712 267.93 145.992 267.93C145.272 267.93 144.626 268.137 144.052 268.55C143.492 268.95 143.046 269.59 142.712 270.47C142.379 271.337 142.212 272.463 142.212 273.85Z" fill="black"/>
<path d="M49.2 115.07L50.08 114.21C50.52 114.703 51.0333 115.09 51.62 115.37C52.2067 115.65 52.86 115.79 53.58 115.79C54.6067 115.79 55.4533 115.517 56.12 114.97C56.7867 114.423 57.12 113.67 57.12 112.71C57.12 112.11 56.9533 111.603 56.62 111.19C56.3 110.763 55.8533 110.443 55.28 110.23C54.7067 110.003 54.06 109.89 53.34 109.89H51.76V109.07L52.82 108.83H53.8C54.5867 108.83 55.3267 108.977 56.02 109.27C56.7267 109.55 57.3 109.977 57.74 110.55C58.18 111.123 58.4 111.843 58.4 112.71C58.4 113.59 58.18 114.343 57.74 114.97C57.3 115.597 56.7133 116.077 55.98 116.41C55.26 116.743 54.46 116.91 53.58 116.91C52.6867 116.91 51.88 116.757 51.16 116.45C50.44 116.143 49.7867 115.683 49.2 115.07ZM49.54 104.07V102.95H57.92V103.79L56.94 104.07H49.54ZM51.76 109.07L57.14 102.95L57.92 103.79L53.26 109.07H51.76ZM61.9322 109.85C61.9322 108.237 62.1655 106.91 62.6322 105.87C63.0989 104.83 63.7189 104.057 64.4922 103.55C65.2655 103.043 66.1055 102.79 67.0122 102.79C67.9055 102.79 68.7322 103.043 69.4922 103.55C70.2655 104.057 70.8855 104.83 71.3522 105.87C71.8189 106.91 72.0522 108.237 72.0522 109.85C72.0522 111.45 71.8189 112.777 71.3522 113.83C70.8855 114.87 70.2655 115.643 69.4922 116.15C68.7322 116.657 67.9055 116.91 67.0122 116.91C66.1055 116.91 65.2655 116.657 64.4922 116.15C63.7189 115.643 63.0989 114.87 62.6322 113.83C62.1655 112.777 61.9322 111.45 61.9322 109.85ZM63.2122 109.85C63.2122 111.237 63.3789 112.37 63.7122 113.25C64.0455 114.117 64.4922 114.757 65.0522 115.17C65.6255 115.57 66.2722 115.77 66.9922 115.77C67.7122 115.77 68.3589 115.57 68.9322 115.17C69.5055 114.757 69.9522 114.117 70.2722 113.25C70.6055 112.37 70.7722 111.237 70.7722 109.85C70.7722 108.463 70.6055 107.337 70.2722 106.47C69.9522 105.59 69.5055 104.95 68.9322 104.55C68.3589 104.137 67.7122 103.93 66.9922 103.93C66.2722 103.93 65.6255 104.137 65.0522 104.55C64.4922 104.95 64.0455 105.59 63.7122 106.47C63.3789 107.337 63.2122 108.463 63.2122 109.85Z" fill="#888888"/>
<path d="M168.2 279.07L169.08 278.21C169.52 278.703 170.033 279.09 170.62 279.37C171.207 279.65 171.86 279.79 172.58 279.79C173.607 279.79 174.453 279.517 175.12 278.97C175.787 278.423 176.12 277.67 176.12 276.71C176.12 276.11 175.953 275.603 175.62 275.19C175.3 274.763 174.853 274.443 174.28 274.23C173.707 274.003 173.06 273.89 172.34 273.89H170.76V273.07L171.82 272.83H172.8C173.587 272.83 174.327 272.977 175.02 273.27C175.727 273.55 176.3 273.977 176.74 274.55C177.18 275.123 177.4 275.843 177.4 276.71C177.4 277.59 177.18 278.343 176.74 278.97C176.3 279.597 175.713 280.077 174.98 280.41C174.26 280.743 173.46 280.91 172.58 280.91C171.687 280.91 170.88 280.757 170.16 280.45C169.44 280.143 168.787 279.683 168.2 279.07ZM168.54 268.07V266.95H176.92V267.79L175.94 268.07H168.54ZM170.76 273.07L176.14 266.95L176.92 267.79L172.26 273.07H170.76ZM181.992 280.75V279.67H190.312V280.75H181.992ZM182.132 268.73L185.952 266.95L186.372 267.99L182.612 269.73L182.132 268.73ZM185.572 280.75V268.01L185.952 266.95H186.812V280.75H185.572Z" fill="black"/>
</svg>
