<svg width="37" height="34" viewBox="0 0 37 34" fill="none" xmlns="http://www.w3.org/2000/svg">
<path d="M3.74806 33.2521C2.84544 33.2521 2.07302 32.931 1.4308 32.2887C0.788574 31.6465 0.466914 30.8735 0.46582 29.9698V10.2764C0.46582 9.37379 0.78748 8.60137 1.4308 7.95914C2.07412 7.31692 2.84654 6.99526 3.74806 6.99416H8.91758L11.9537 3.71193H21.8004V6.99416H13.3896L10.3946 10.2764H3.74806V29.9698H30.006V15.1998H33.2882V29.9698C33.2882 30.8724 32.9671 31.6454 32.3249 32.2887C31.6826 32.9321 30.9097 33.2532 30.006 33.2521H3.74806ZM30.006 10.2764V6.99416H26.7237V3.71193H30.006V0.429688H33.2882V3.71193H36.5704V6.99416H33.2882V10.2764H30.006ZM16.877 27.5082C18.9284 27.5082 20.6724 26.7904 22.1089 25.355C23.5454 23.9196 24.2631 22.1756 24.262 20.1231C24.261 18.0706 23.5432 16.3272 22.1089 14.8929C20.6746 13.4585 18.9306 12.7403 16.877 12.7381C14.8234 12.7359 13.08 13.4542 11.6468 14.8929C10.2135 16.3316 9.49526 18.075 9.49198 20.1231C9.48869 22.1712 10.207 23.9152 11.6468 25.355C13.0866 26.7948 14.83 27.5125 16.877 27.5082ZM16.877 24.2259C15.7282 24.2259 14.7572 23.8293 13.964 23.0361C13.1708 22.2429 12.7742 21.2719 12.7742 20.1231C12.7742 18.9743 13.1708 18.0033 13.964 17.2101C14.7572 16.4169 15.7282 16.0203 16.877 16.0203C18.0258 16.0203 18.9968 16.4169 19.79 17.2101C20.5832 18.0033 20.9798 18.9743 20.9798 20.1231C20.9798 21.2719 20.5832 22.2429 19.79 23.0361C18.9968 23.8293 18.0258 24.2259 16.877 24.2259Z" fill="#FF005A"/>
</svg>
