<svg width="168" height="26" viewBox="0 0 168 26" fill="none" xmlns="http://www.w3.org/2000/svg">
<path d="M10.1977 0.242717C13.8922 0.242717 16.6831 1.06594 18.5705 2.71238C20.4779 4.33874 21.4317 6.7582 21.4317 9.97077V10.3021C21.4317 13.5146 20.488 15.9341 18.6006 17.5605C16.7132 19.1868 13.9122 20 10.1977 20H0.349189V0.242717H10.1977ZM10.1977 15.9341C12.4666 15.9341 14.1331 15.4823 15.1973 14.5788C16.2815 13.6753 16.8236 12.2698 16.8236 10.3623V9.94065C16.8236 8.05327 16.2715 6.64777 15.1672 5.72416C14.0628 4.78047 12.3963 4.30862 10.1676 4.30862H4.86686V15.9341H10.1977ZM42.0976 4.91098V20H38.0317L37.9113 18.5543C36.5861 19.7189 34.8895 20.3213 32.8214 20.3614C30.2312 20.3815 28.2535 19.7189 26.8882 18.3736C25.5429 17.0083 24.8703 15.0004 24.8703 12.3501V4.91098H29.2373V12.3501C29.2373 13.6552 29.5887 14.6591 30.2915 15.3619C31.0143 16.0445 32.0584 16.3859 33.4237 16.3859C34.3674 16.3859 35.2207 16.175 35.9837 15.7534C36.7467 15.3117 37.329 14.7193 37.7306 13.9764V4.91098H42.0976ZM53.4502 8.76606V14.4884C53.4502 15.0306 53.6008 15.4522 53.9019 15.7534C54.2232 16.0345 54.675 16.175 55.2572 16.175H58.8111V20H54.685C52.9583 20 51.5929 19.5382 50.589 18.6146C49.5851 17.6709 49.0831 16.3959 49.0831 14.7896V8.76606H44.0534V4.91098H48.0892C48.5109 4.91098 48.802 4.83066 48.9626 4.67003C49.1233 4.50941 49.2036 4.21827 49.2036 3.79662V0.905309H53.4502V4.91098H59.7147V8.76606H53.4502ZM80.3614 4.91098V5.54345L72.3802 21.5059C71.7377 22.7708 70.9445 23.6844 70.0009 24.2466C69.0572 24.8289 67.7922 25.12 66.206 25.12H62.2606V21.2951H65.9952C66.5373 21.2951 66.959 21.2248 67.2601 21.0842C67.5814 20.9638 67.8525 20.7228 68.0733 20.3614L60.5137 5.54345V4.91098H65.1519L70.4827 15.7835L75.7232 4.91098H80.3614ZM112.999 0.242717V4.30862H99.8674V8.495H112.396V12.5609H99.8674V20H95.3497V0.242717H112.999ZM128.031 4.91098V8.76606H124.657C122.77 8.76606 121.445 9.2379 120.682 10.1816V20H116.345V4.91098H120.411L120.531 6.2964C121.796 5.37278 123.362 4.91098 125.23 4.91098H128.031ZM146.948 13.7355H133.515C133.656 14.6792 134.117 15.402 134.901 15.904C135.684 16.4059 136.738 16.6569 138.063 16.6569C139.268 16.6569 140.251 16.4963 141.014 16.175C141.777 15.8538 142.219 15.4121 142.34 14.8499H146.918C146.697 16.6168 145.813 17.9821 144.267 18.9459C142.741 19.8896 140.673 20.3614 138.063 20.3614C136.216 20.3614 134.609 20.0602 133.244 19.4579C131.879 18.8354 130.835 17.952 130.112 16.8075C129.389 15.663 129.028 14.3178 129.028 12.7717V12.1995C129.028 10.6334 129.389 9.27806 130.112 8.13358C130.855 6.96903 131.899 6.08557 133.244 5.48322C134.609 4.86078 136.216 4.54956 138.063 4.54956C140.874 4.54956 143.052 5.22219 144.598 6.56746C146.165 7.89264 146.948 9.75994 146.948 12.1694V13.7355ZM138.033 8.19382C136.868 8.19382 135.904 8.40464 135.141 8.82629C134.378 9.24794 133.877 9.84026 133.636 10.6032H142.34C142.099 9.84026 141.607 9.24794 140.864 8.82629C140.121 8.40464 139.177 8.19382 138.033 8.19382ZM167.154 13.7355H153.721C153.862 14.6792 154.323 15.402 155.107 15.904C155.89 16.4059 156.944 16.6569 158.269 16.6569C159.474 16.6569 160.457 16.4963 161.22 16.175C161.983 15.8538 162.425 15.4121 162.546 14.8499H167.124C166.903 16.6168 166.019 17.9821 164.473 18.9459C162.947 19.8896 160.879 20.3614 158.269 20.3614C156.422 20.3614 154.815 20.0602 153.45 19.4579C152.085 18.8354 151.041 17.952 150.318 16.8075C149.595 15.663 149.234 14.3178 149.234 12.7717V12.1995C149.234 10.6334 149.595 9.27806 150.318 8.13358C151.061 6.96903 152.105 6.08557 153.45 5.48322C154.815 4.86078 156.422 4.54956 158.269 4.54956C161.08 4.54956 163.258 5.22219 164.804 6.56746C166.371 7.89264 167.154 9.75994 167.154 12.1694V13.7355ZM158.239 8.19382C157.074 8.19382 156.11 8.40464 155.347 8.82629C154.584 9.24794 154.082 9.84026 153.842 10.6032H162.546C162.305 9.84026 161.813 9.24794 161.07 8.82629C160.327 8.40464 159.383 8.19382 158.239 8.19382Z" fill="url(#paint0_linear_1_1206)"/>
<defs>
<linearGradient id="paint0_linear_1_1206" x1="15.5075" y1="10.1642" x2="168.507" y2="12.6642" gradientUnits="userSpaceOnUse">
<stop offset="0.322632" stop-color="#F94D8D"/>
<stop offset="1" stop-color="#FF005A"/>
</linearGradient>
</defs>
</svg>
