<svg width="24" height="24" viewBox="0 0 24 24" fill="none" xmlns="http://www.w3.org/2000/svg">
<mask id="mask0_44_8" style="mask-type:luminance" maskUnits="userSpaceOnUse" x="0" y="0" width="24" height="24">
<path d="M12 24C18.6274 24 24 18.6274 24 12C24 5.37258 18.6274 0 12 0C5.37258 0 0 5.37258 0 12C0 18.6274 5.37258 24 12 24Z" fill="white"/>
</mask>
<g mask="url(#mask0_44_8)">
<path d="M0 0H24V24H0V0Z" fill="#0052B4"/>
<path d="M12.0004 4.69727L12.3895 5.89258H13.641L12.6238 6.62852L13.0129 7.82852L11.9957 7.08789L10.9785 7.82852L11.3676 6.62852L10.3504 5.89258H11.6066L12.0004 4.69727ZM6.83477 6.83477L7.95977 7.40664L8.8457 6.51602L8.64883 7.7582L9.76914 8.33008L8.52695 8.52695L8.33008 9.76914L7.7582 8.64414L6.51602 8.8457L7.40664 7.95508L6.83477 6.83477ZM4.69727 12.0004L5.89258 11.6113V10.3598L6.62852 11.377L7.82852 10.9879L7.08789 12.0051L7.82852 13.0223L6.62852 12.6332L5.89258 13.6504V12.3941L4.69727 12.0004ZM6.83477 17.166L7.40664 16.041L6.51602 15.1551L7.7582 15.352L8.33008 14.2316L8.52695 15.4738L9.76914 15.6707L8.64414 16.2426L8.8457 17.4848L7.95508 16.5941L6.83477 17.166ZM12.0004 19.3035L11.6113 18.1082H10.3598L11.377 17.3723L10.9879 16.1723L12.0051 16.9129L13.0223 16.1723L12.6332 17.3723L13.6504 18.1082H12.3941L12.0004 19.3035ZM17.166 17.166L16.041 16.5941L15.1551 17.4848L15.352 16.2426L14.2316 15.6707L15.4738 15.4738L15.6707 14.2316L16.2426 15.3566L17.4848 15.1551L16.5941 16.0457L17.166 17.166ZM19.3035 12.0004L18.1082 12.3895V13.641L17.3723 12.6238L16.1723 13.0129L16.9129 11.9957L16.1723 10.9785L17.3723 11.3676L18.1082 10.3504V11.6066L19.3035 12.0004ZM17.166 6.83477L16.5941 7.95977L17.4848 8.8457L16.2426 8.64883L15.6707 9.76914L15.4738 8.52695L14.2316 8.33008L15.3566 7.7582L15.1551 6.51602L16.0457 7.40664L17.166 6.83477Z" fill="#FFDA44"/>
</g>
</svg>
