<svg width="18" height="18" viewBox="0 0 18 18" fill="none" xmlns="http://www.w3.org/2000/svg">
<path fill-rule="evenodd" clip-rule="evenodd" d="M9.50008 8.58518L12.7426 11.8277L12.0359 12.5352L8.50008 8.99935V3.99935H9.50008V8.58518ZM9.00008 17.3327C4.39758 17.3327 0.666748 13.6018 0.666748 8.99935C0.666748 4.39685 4.39758 0.666016 9.00008 0.666016C13.6026 0.666016 17.3334 4.39685 17.3334 8.99935C17.3334 13.6018 13.6026 17.3327 9.00008 17.3327ZM9.00008 16.3327C10.945 16.3327 12.8103 15.5601 14.1855 14.1848C15.5608 12.8095 16.3334 10.9443 16.3334 8.99935C16.3334 7.05443 15.5608 5.18917 14.1855 3.8139C12.8103 2.43863 10.945 1.66602 9.00008 1.66602C7.05516 1.66602 5.1899 2.43863 3.81463 3.8139C2.43936 5.18917 1.66675 7.05443 1.66675 8.99935C1.66675 10.9443 2.43936 12.8095 3.81463 14.1848C5.1899 15.5601 7.05516 16.3327 9.00008 16.3327Z" fill="#EF1865"/>
</svg>
