<svg width="32" height="32" viewBox="0 0 32 32" fill="none" xmlns="http://www.w3.org/2000/svg">
<path d="M26.53 10.47L19.53 3.47C19.3895 3.32931 19.1988 3.25018 19 3.25H7C6.53587 3.25 6.09075 3.43437 5.76256 3.76256C5.43437 4.09075 5.25 4.53587 5.25 5V27C5.25 27.4641 5.43437 27.9092 5.76256 28.2374C6.09075 28.5656 6.53587 28.75 7 28.75H25C25.4641 28.75 25.9092 28.5656 26.2374 28.2374C26.5656 27.9092 26.75 27.4641 26.75 27V11C26.7498 10.8012 26.6707 10.6105 26.53 10.47ZM19.75 5.81L24.19 10.25H19.75V5.81ZM25 27.25H7C6.9337 27.25 6.87011 27.2237 6.82322 27.1768C6.77634 27.1299 6.75 27.0663 6.75 27V5C6.75 4.9337 6.77634 4.87011 6.82322 4.82322C6.87011 4.77634 6.9337 4.75 7 4.75H18.25V11C18.25 11.1989 18.329 11.3897 18.4697 11.5303C18.6103 11.671 18.8011 11.75 19 11.75H25.25V27C25.25 27.0663 25.2237 27.1299 25.1768 27.1768C25.1299 27.2237 25.0663 27.25 25 27.25Z" fill="#FF005A"/>
</svg>
