<svg width="60" height="60" viewBox="0 0 60 60" fill="none" xmlns="http://www.w3.org/2000/svg">
<circle cx="30" cy="30" r="30" fill="#FDC3D9"/>
<path fill-rule="evenodd" clip-rule="evenodd" d="M40.583 21.4285C40.7151 21.2966 40.8199 21.1399 40.8914 20.9675C40.963 20.795 40.9999 20.6102 41 20.4235C41.0001 20.2368 40.9635 20.0519 40.8921 19.8793C40.8208 19.7068 40.7161 19.55 40.5842 19.4179C40.4523 19.2858 40.2956 19.181 40.1232 19.1094C39.9507 19.0379 39.7659 19.001 39.5792 19.0009C39.3925 19.0008 39.2076 19.0374 39.035 19.1088C38.8625 19.1801 38.7057 19.2847 38.5736 19.4167L29.9998 27.9906L21.4285 19.4167C21.1617 19.1499 20.7999 19 20.4226 19C20.0453 19 19.6835 19.1499 19.4167 19.4167C19.1499 19.6835 19 20.0453 19 20.4226C19 20.7999 19.1499 21.1618 19.4167 21.4285L27.9905 30L19.4167 38.5715C19.2846 38.7036 19.1798 38.8604 19.1083 39.033C19.0368 39.2056 19 39.3906 19 39.5774C19 39.7642 19.0368 39.9492 19.1083 40.1218C19.1798 40.2944 19.2846 40.4512 19.4167 40.5833C19.6835 40.8501 20.0453 41 20.4226 41C20.6094 41 20.7944 40.9632 20.967 40.8917C21.1396 40.8202 21.2964 40.7154 21.4285 40.5833L29.9998 32.0094L38.5736 40.5833C38.8404 40.8498 39.2021 40.9994 39.5792 40.9991C39.9562 40.9989 40.3178 40.8489 40.5842 40.5821C40.8507 40.3153 41.0002 39.9536 41 39.5765C40.9998 39.1995 40.8498 38.8379 40.583 38.5715L32.0092 30L40.583 21.4285Z" fill="#FF005A"/>
</svg>
