<svg width="30" height="30" viewBox="0 0 30 30" fill="none" xmlns="http://www.w3.org/2000/svg">
<path d="M15 24.8083C15.5444 24.8083 16.0172 24.6183 16.4183 24.2383C16.8194 23.8583 17.0517 23.3861 17.115 22.8217H12.885C12.9494 23.3872 13.1817 23.8594 13.5817 24.2383C13.9817 24.6172 14.4544 24.8083 15 24.8083ZM11.6667 18.205V12.9483C11.6667 12.0317 11.9933 11.2472 12.6467 10.595C13.3 9.94278 14.0844 9.61611 15 9.615C15.9156 9.61389 16.7006 9.94056 17.355 10.595C18.0094 11.2494 18.3356 12.0339 18.3333 12.9483V18.205H11.6667ZM15.005 30C12.9317 30 10.9817 29.6067 9.155 28.82C7.32944 28.0322 5.74111 26.9633 4.39 25.6133C3.03889 24.2633 1.96944 22.6767 1.18167 20.8533C0.393889 19.03 0 17.0806 0 15.005C0 12.9294 0.393889 10.9794 1.18167 9.155C1.96833 7.32944 3.03556 5.74111 4.38333 4.39C5.73111 3.03889 7.31833 1.96944 9.145 1.18167C10.9717 0.393889 12.9217 0 14.995 0C17.0683 0 19.0183 0.393889 20.845 1.18167C22.6706 1.96833 24.2589 3.03611 25.61 4.385C26.9611 5.73389 28.0306 7.32111 28.8183 9.14667C29.6061 10.9722 30 12.9217 30 14.995C30 17.0683 29.6067 19.0183 28.82 20.845C28.0333 22.6717 26.9644 24.26 25.6133 25.61C24.2622 26.96 22.6756 28.0294 20.8533 28.8183C19.0311 29.6072 17.0817 30.0011 15.005 30ZM15 28.3333C18.7222 28.3333 21.875 27.0417 24.4583 24.4583C27.0417 21.875 28.3333 18.7222 28.3333 15C28.3333 11.2778 27.0417 8.125 24.4583 5.54167C21.875 2.95833 18.7222 1.66667 15 1.66667C11.2778 1.66667 8.125 2.95833 5.54167 5.54167C2.95833 8.125 1.66667 11.2778 1.66667 15C1.66667 18.7222 2.95833 21.875 5.54167 24.4583C8.125 27.0417 11.2778 28.3333 15 28.3333ZM8.975 20.2567H21.025C21.3161 20.2567 21.56 20.1583 21.7567 19.9617C21.9533 19.765 22.0517 19.5217 22.0517 19.2317C22.0517 18.9417 21.9533 18.6978 21.7567 18.5C21.56 18.3022 21.3167 18.2039 21.0267 18.205H20.385V13.68C20.385 12.2633 20.0117 10.9761 19.265 9.81833C18.5183 8.66167 17.4811 7.93167 16.1533 7.62833V6.28167C16.1533 5.93722 16.0472 5.64833 15.835 5.415C15.6228 5.18167 15.3444 5.065 15 5.065C14.6556 5.065 14.3772 5.18167 14.165 5.415C13.9528 5.64833 13.8467 5.93722 13.8467 6.28167V7.62833C12.52 7.93167 11.4828 8.65111 10.735 9.78667C9.98833 10.9222 9.615 12.1983 9.615 13.615V18.205H8.97333C8.68333 18.205 8.44 18.3033 8.24333 18.5C8.04667 18.6967 7.94833 18.9406 7.94833 19.2317C7.94833 19.5228 8.04667 19.7661 8.24333 19.9617C8.44 20.1572 8.68333 20.2556 8.97333 20.2567" fill="#222222"/>
</svg>
