<svg width="18" height="18" viewBox="0 0 18 18" fill="none" xmlns="http://www.w3.org/2000/svg">
<path d="M17.33 0.67008C17.1408 0.482247 16.9035 0.350201 16.6442 0.288455C16.3849 0.226708 16.1135 0.237651 15.86 0.32008L1.23 5.20008C0.958673 5.28606 0.718908 5.45051 0.540989 5.67267C0.363071 5.89484 0.254981 6.16474 0.23037 6.4483C0.205759 6.73186 0.265732 7.01635 0.402714 7.26585C0.539696 7.51534 0.747543 7.71864 1 7.85008L7.07 10.8501L10.07 16.9401C10.1906 17.1785 10.3751 17.3786 10.6029 17.5181C10.8307 17.6576 11.0929 17.731 11.36 17.7301H11.46C11.7461 17.709 12.0192 17.6024 12.2439 17.424C12.4686 17.2457 12.6345 17.0039 12.72 16.7301L17.67 2.14008C17.7584 1.88801 17.7734 1.61602 17.7132 1.35578C17.653 1.09553 17.5201 0.857737 17.33 0.67008ZM1.85 6.58008L14.62 2.32008L7.53 9.41008L1.85 6.58008ZM11.43 16.1501L8.59 10.4701L15.68 3.38008L11.43 16.1501Z" fill="#888888"/>
</svg>
