<svg width="19" height="22" viewBox="0 0 19 22" fill="none" xmlns="http://www.w3.org/2000/svg">
<path d="M15.5219 3.59351C14.7081 2.78428 13.6082 2.32825 12.4605 2.3242C11.3128 2.32014 10.2098 2.76839 9.39023 3.57184L2.17523 10.6612C1.97093 10.8631 1.69478 10.9757 1.40752 10.974C1.12025 10.9724 0.845398 10.8568 0.643394 10.6525C0.543412 10.5517 0.464347 10.4322 0.410749 10.3007C0.35715 10.1692 0.330075 10.0285 0.331082 9.88651C0.332089 9.74454 0.361157 9.60418 0.416615 9.47349C0.472073 9.3428 0.552826 9.22437 0.654228 9.12501L7.86706 2.03784C9.09423 0.833279 10.7466 0.160774 12.4662 0.166046C14.1857 0.171319 15.834 0.853944 17.0537 2.06601C17.6588 2.66748 18.1391 3.38265 18.4667 4.1704C18.7944 4.95815 18.9631 5.80291 18.9631 6.65609C18.9631 7.50928 18.7944 8.35404 18.4667 9.14179C18.1391 9.92953 17.6588 10.6447 17.0537 11.2462L7.66773 20.5932C6.86963 21.3865 5.79004 21.8318 4.66473 21.8318C3.53942 21.8318 2.45982 21.3865 1.66173 20.5932C1.26756 20.2012 0.954755 19.7351 0.741309 19.2218C0.527863 18.7085 0.417982 18.158 0.417982 17.6021C0.417982 17.0462 0.527863 16.4957 0.741309 15.9824C0.954755 15.4691 1.26756 15.003 1.66173 14.611L10.4151 5.89451C10.6181 5.69208 10.8932 5.57841 11.1799 5.57841C11.4666 5.57841 11.7417 5.69208 11.9447 5.89451C12.0451 5.99455 12.1247 6.11341 12.1791 6.24429C12.2334 6.37516 12.2614 6.51547 12.2614 6.65718C12.2614 6.79888 12.2334 6.93919 12.1791 7.07007C12.1247 7.20094 12.0451 7.31981 11.9447 7.41984L3.19356 16.1363C3.00037 16.3284 2.84706 16.5568 2.74245 16.8084C2.63783 17.0599 2.58398 17.3297 2.58398 17.6021C2.58398 17.8745 2.63783 18.1443 2.74245 18.3958C2.84706 18.6474 3.00037 18.8758 3.19356 19.0678C3.58469 19.4579 4.11452 19.6769 4.66689 19.6769C5.21927 19.6769 5.7491 19.4579 6.14023 19.0678L15.5219 9.72084C15.9257 9.31935 16.2461 8.84198 16.4648 8.31621C16.6835 7.79043 16.796 7.22661 16.796 6.65718C16.796 6.08774 16.6835 5.52392 16.4648 4.99815C16.2461 4.47237 15.9257 3.99501 15.5219 3.59351Z" fill="#FF005A"/>
</svg>
