<svg width="89" height="89" viewBox="0 0 89 89" fill="none" xmlns="http://www.w3.org/2000/svg">
<rect x="4.17188" y="4.17188" width="80.6562" height="80.0144" rx="18.9339" fill="#F94D8D" stroke="#FDC3D9" stroke-width="8.34375"/>
<path d="M35.3307 66.6706L44.7341 67.1783H46.0048L47.0214 63.1168C47.8346 62.1015 53.968 61.5092 56.9331 61.34V56.7709H62.7784L63.5409 46.8712C61.711 45.6527 54.4763 44.1635 51.0877 43.5712C53.1209 43.3682 56.6789 42.8097 58.2038 42.5559V30.3716H51.0877V28.3409C49.6645 23.0611 44.5646 21.4027 42.1926 21.2334C32.6367 20.4212 31.2643 29.1871 31.7726 33.6715C29.7394 34.2808 26.8591 35.9561 25.6731 36.7176L29.7394 45.8558L27.198 46.8712L30.5019 57.7862C34.9748 54.9432 42.7009 54.9094 46.0048 55.2478L33.0433 59.8169L35.3307 66.6706Z" fill="white"/>
<path d="M36.2195 64.3716L44.6135 64.825H45.7478L46.6553 61.198C47.3813 60.2913 52.8563 59.7624 55.503 59.6112V55.5309H60.7209L61.4015 46.6903C59.7681 45.6022 53.31 44.2723 50.2851 43.7434C52.1001 43.562 55.2762 43.0633 56.6374 42.8366V31.9558H50.2851V30.1423C49.0147 25.4273 44.4623 23.9463 42.3449 23.7952C33.8147 23.0698 32.5897 30.8979 33.0434 34.9027C31.2285 35.4467 28.6573 36.9428 27.5986 37.6229L31.2285 45.7835L28.9598 46.6903L31.9091 56.4377C35.9019 53.8988 42.7986 53.8686 45.7478 54.1708L34.1777 58.2511L36.2195 64.3716Z" fill="#FB3781" stroke="white" stroke-width="0.213942"/>
<path d="M40.7081 37.4434C40.7081 38.1097 40.2134 38.62 39.6384 38.62C39.0634 38.62 38.5687 38.1097 38.5687 37.4434C38.5687 36.777 39.0634 36.2667 39.6384 36.2667C40.2134 36.2667 40.7081 36.777 40.7081 37.4434Z" stroke="white" stroke-width="0.427885"/>
<path d="M45.4149 35.7314C45.4149 36.3978 44.9202 36.9081 44.3452 36.9081C43.7702 36.9081 43.2755 36.3978 43.2755 35.7314C43.2755 35.0651 43.7702 34.5548 44.3452 34.5548C44.9202 34.5548 45.4149 35.0651 45.4149 35.7314Z" stroke="white" stroke-width="0.427885"/>
<mask id="path-6-inside-1_1_1198" fill="white">
<path d="M47.1406 38.3398C47.3395 38.8908 47.4256 39.4761 47.3937 40.0611C47.3618 40.646 47.2126 41.2186 46.955 41.7447C46.6973 42.2708 46.3364 42.7397 45.8939 43.1234C45.4513 43.5072 44.936 43.7981 44.3788 43.9787C43.8215 44.1593 43.2336 44.226 42.65 44.1748C42.0665 44.1235 41.4992 43.9554 40.9819 43.6805C40.4646 43.4056 40.0079 43.0294 39.639 42.5744C39.27 42.1193 38.9964 41.5947 38.8343 41.0318L43.032 39.8233L47.1406 38.3398Z"/>
</mask>
<path d="M47.1406 38.3398C47.3395 38.8908 47.4256 39.4761 47.3937 40.0611C47.3618 40.646 47.2126 41.2186 46.955 41.7447C46.6973 42.2708 46.3364 42.7397 45.8939 43.1234C45.4513 43.5072 44.936 43.7981 44.3788 43.9787C43.8215 44.1593 43.2336 44.226 42.65 44.1748C42.0665 44.1235 41.4992 43.9554 40.9819 43.6805C40.4646 43.4056 40.0079 43.0294 39.639 42.5744C39.27 42.1193 38.9964 41.5947 38.8343 41.0318L43.032 39.8233L47.1406 38.3398Z" stroke="white" stroke-width="0.855769" mask="url(#path-6-inside-1_1_1198)"/>
</svg>
