<svg width="40" height="40" viewBox="0 0 40 40" fill="none" xmlns="http://www.w3.org/2000/svg">
<circle cx="20" cy="20" r="20" fill="#EF1865"/>
<path d="M23.8108 27.494C23.9421 27.3629 24.0463 27.2073 24.1174 27.0359C24.1885 26.8645 24.2251 26.6808 24.2251 26.4952C24.2251 26.3097 24.1885 26.126 24.1174 25.9546C24.0463 25.7832 23.9421 25.6276 23.8108 25.4965L18.3141 19.9998L23.8108 14.5032C24.0757 14.2383 24.2245 13.879 24.2245 13.5044C24.2245 13.1298 24.0757 12.7705 23.8108 12.5057C23.5459 12.2408 23.1867 12.092 22.8121 12.092C22.4374 12.092 22.0782 12.2408 21.8133 12.5057L15.3108 19.0082C15.1795 19.1392 15.0753 19.2949 15.0042 19.4663C14.9331 19.6377 14.8965 19.8214 14.8965 20.0069C14.8965 20.1924 14.9331 20.3762 15.0042 20.5475C15.0753 20.7189 15.1795 20.8746 15.3108 21.0057L21.8133 27.5082C22.3516 28.0465 23.2583 28.0465 23.8108 27.494Z" fill="#F69ABA"/>
</svg>
