<svg width="40" height="40" viewBox="0 0 40 40" fill="none" xmlns="http://www.w3.org/2000/svg">
<circle cx="20" cy="20" r="20" fill="#FDC3D9"/>
<circle cx="20" cy="20" r="15" fill="#F94D8D"/>
<path d="M14.627 27V25.005L19.757 20.16C20.1623 19.7927 20.46 19.4633 20.65 19.172C20.84 18.8807 20.9667 18.6147 21.03 18.374C21.106 18.1333 21.144 17.9117 21.144 17.709C21.144 17.177 20.9603 16.7717 20.593 16.493C20.2383 16.2017 19.7127 16.056 19.016 16.056C18.4587 16.056 17.9393 16.1637 17.458 16.379C16.9893 16.5943 16.5903 16.93 16.261 17.386L14.019 15.942C14.5257 15.182 15.235 14.5803 16.147 14.137C17.059 13.6937 18.1103 13.472 19.301 13.472C20.289 13.472 21.1503 13.6367 21.885 13.966C22.6323 14.2827 23.2087 14.7323 23.614 15.315C24.032 15.8977 24.241 16.5943 24.241 17.405C24.241 17.8357 24.184 18.2663 24.07 18.697C23.9687 19.115 23.7533 19.5583 23.424 20.027C23.1073 20.4957 22.6387 21.0213 22.018 21.604L17.762 25.613L17.173 24.492H24.678V27H14.627Z" fill="white"/>
</svg>
