<svg width="132" height="24" viewBox="0 0 132 24" fill="none" xmlns="http://www.w3.org/2000/svg">
<path d="M12.0001 17.2698L16.1501 19.7798C16.9101 20.2398 17.8401 19.5598 17.6401 18.6998L16.5401 13.9798L20.2101 10.7998C20.8801 10.2198 20.5201 9.11977 19.6401 9.04977L14.8101 8.63977L12.9201 4.17977C12.5801 3.36977 11.4201 3.36977 11.0801 4.17977L9.19007 8.62977L4.36007 9.03977C3.48007 9.10977 3.12007 10.2098 3.79007 10.7898L7.46007 13.9698L6.36007 18.6898C6.16007 19.5498 7.09007 20.2298 7.85007 19.7698L12.0001 17.2698Z" fill="#ECBE1C"/>
<path d="M39.0001 17.2698L43.1501 19.7798C43.9101 20.2398 44.8401 19.5598 44.6401 18.6998L43.5401 13.9798L47.2101 10.7998C47.8801 10.2198 47.5201 9.11977 46.6401 9.04977L41.8101 8.63977L39.9201 4.17977C39.5801 3.36977 38.4201 3.36977 38.0801 4.17977L36.1901 8.62977L31.3601 9.03977C30.4801 9.10977 30.1201 10.2098 30.7901 10.7898L34.4601 13.9698L33.3601 18.6898C33.1601 19.5498 34.0901 20.2298 34.8501 19.7698L39.0001 17.2698Z" fill="#ECBE1C"/>
<path d="M66.0001 17.2698L70.1501 19.7798C70.9101 20.2398 71.8401 19.5598 71.6401 18.6998L70.5401 13.9798L74.2101 10.7998C74.8801 10.2198 74.5201 9.11977 73.6401 9.04977L68.8101 8.63977L66.9201 4.17977C66.5801 3.36977 65.4201 3.36977 65.0801 4.17977L63.1901 8.62977L58.3601 9.03977C57.4801 9.10977 57.1201 10.2098 57.7901 10.7898L61.4601 13.9698L60.3601 18.6898C60.1601 19.5498 61.0901 20.2298 61.8501 19.7698L66.0001 17.2698Z" fill="#ECBE1C"/>
<path d="M93.0001 17.2698L97.1501 19.7798C97.9101 20.2398 98.8401 19.5598 98.6401 18.6998L97.5401 13.9798L101.21 10.7998C101.88 10.2198 101.52 9.11977 100.64 9.04977L95.8101 8.63977L93.9201 4.17977C93.5801 3.36977 92.4201 3.36977 92.0801 4.17977L90.1901 8.62977L85.3601 9.03977C84.4801 9.10977 84.1201 10.2098 84.7901 10.7898L88.4601 13.9698L87.3601 18.6898C87.1601 19.5498 88.0901 20.2298 88.8501 19.7698L93.0001 17.2698Z" fill="#ECBE1C"/>
<path d="M120 17.2698L124.15 19.7798C124.91 20.2398 125.84 19.5598 125.64 18.6998L124.54 13.9798L128.21 10.7998C128.88 10.2198 128.52 9.11977 127.64 9.04977L122.81 8.63977L120.92 4.17977C120.58 3.36977 119.42 3.36977 119.08 4.17977L117.19 8.62977L112.36 9.03977C111.48 9.10977 111.12 10.2098 111.79 10.7898L115.46 13.9698L114.36 18.6898C114.16 19.5498 115.09 20.2298 115.85 19.7698L120 17.2698Z" fill="#888888"/>
</svg>
