<svg width="81" height="15" viewBox="0 0 81 15" fill="none" xmlns="http://www.w3.org/2000/svg">
<path d="M7.36365 10.5977L9.91024 12.1379C10.3766 12.4202 10.9473 12.0029 10.8246 11.4752L10.1496 8.5788L12.4016 6.62744C12.8127 6.27153 12.5918 5.59653 12.0518 5.55358L9.08797 5.30199L7.9282 2.56517C7.71956 2.06812 7.00774 2.06812 6.79911 2.56517L5.63933 5.29585L2.67547 5.54744C2.13547 5.59039 1.91456 6.26539 2.3257 6.6213L4.57774 8.57267L3.90274 11.469C3.78002 11.9968 4.3507 12.414 4.81706 12.1318L7.36365 10.5977Z" fill="#ECBE1C"/>
<path d="M23.932 10.5977L26.4786 12.1379C26.945 12.4202 27.5156 12.0029 27.3929 11.4752L26.7179 8.5788L28.97 6.62744C29.3811 6.27153 29.1602 5.59653 28.6202 5.55358L25.6563 5.30199L24.4966 2.56517C24.2879 2.06812 23.5761 2.06812 23.3675 2.56517L22.2077 5.29585L19.2438 5.54744C18.7038 5.59039 18.4829 6.26539 18.8941 6.6213L21.1461 8.57267L20.4711 11.469C20.3484 11.9968 20.9191 12.414 21.3854 12.1318L23.932 10.5977Z" fill="#ECBE1C"/>
<path d="M40.4999 10.5977L43.0465 12.1379C43.5128 12.4202 44.0835 12.0029 43.9608 11.4752L43.2858 8.5788L45.5378 6.62744C45.949 6.27153 45.7281 5.59653 45.1881 5.55358L42.2242 5.30199L41.0644 2.56517C40.8558 2.06812 40.144 2.06812 39.9353 2.56517L38.7756 5.29585L35.8117 5.54744C35.2717 5.59039 35.0508 6.26539 35.4619 6.6213L37.714 8.57267L37.039 11.469C36.9162 11.9968 37.4869 12.414 37.9533 12.1318L40.4999 10.5977Z" fill="#ECBE1C"/>
<path d="M57.0682 10.5977L59.6148 12.1379C60.0812 12.4202 60.6519 12.0029 60.5292 11.4752L59.8542 8.5788L62.1062 6.62744C62.5173 6.27153 62.2964 5.59653 61.7564 5.55358L58.7926 5.30199L57.6328 2.56517C57.4242 2.06812 56.7123 2.06812 56.5037 2.56517L55.3439 5.29585L52.3801 5.54744C51.8401 5.59039 51.6192 6.26539 52.0303 6.6213L54.2823 8.57267L53.6073 11.469C53.4846 11.9968 54.0553 12.414 54.5217 12.1318L57.0682 10.5977Z" fill="#ECBE1C"/>
<path d="M73.6366 10.5977L76.1832 12.1379C76.6496 12.4202 77.2202 12.0029 77.0975 11.4752L76.4225 8.5788L78.6746 6.62744C79.0857 6.27153 78.8648 5.59653 78.3248 5.55358L75.3609 5.30199L74.2011 2.56517C73.9925 2.06812 73.2807 2.06812 73.0721 2.56517L71.9123 5.29585L68.9484 5.54744C68.4084 5.59039 68.1875 6.26539 68.5986 6.6213L70.8507 8.57267L70.1757 11.469C70.053 11.9968 70.6236 12.414 71.09 12.1318L73.6366 10.5977Z" fill="#ECBE1C"/>
</svg>
