<svg width="30" height="30" viewBox="0 0 30 30" fill="none" xmlns="http://www.w3.org/2000/svg">
<path d="M29.2553 6.225C29.1783 6.13258 29.0819 6.05822 28.973 6.00718C28.8641 5.95615 28.7453 5.92969 28.625 5.92969H6.33984L5.46895 1.13496C5.43469 0.945943 5.33518 0.774942 5.18777 0.651768C5.04036 0.528594 4.8544 0.46106 4.6623 0.460938H1.28125C1.06369 0.460938 0.85504 0.547363 0.701201 0.701201C0.547363 0.85504 0.460938 1.06369 0.460938 1.28125C0.460938 1.49881 0.547363 1.70746 0.701201 1.8613C0.85504 2.01514 1.06369 2.10156 1.28125 2.10156H3.97734L7.50605 21.5074C7.61669 22.1193 7.91482 22.6817 8.35918 23.1166C7.82219 23.5455 7.42105 24.121 7.20435 24.7732C6.98764 25.4254 6.96465 26.1264 7.13817 26.7915C7.31169 27.4565 7.67426 28.0569 8.182 28.5201C8.68975 28.9833 9.32088 29.2894 9.99898 29.4013C10.6771 29.5132 11.3731 29.4261 12.0027 29.1506C12.6324 28.875 13.1686 28.4229 13.5466 27.8489C13.9245 27.2749 14.128 26.6036 14.1323 25.9163C14.1366 25.2291 13.9416 24.5553 13.5709 23.9766H20.7104C20.2853 24.6418 20.0937 25.4296 20.1659 26.2158C20.2381 27.002 20.57 27.7417 21.1092 28.3184C21.6484 28.895 22.3642 29.2758 23.1437 29.4006C23.9233 29.5254 24.7222 29.3872 25.4145 29.0077C26.1067 28.6282 26.653 28.029 26.967 27.3047C27.2811 26.5804 27.3451 25.7721 27.1489 25.0074C26.9528 24.2427 26.5076 23.5651 25.8837 23.0813C25.2598 22.5976 24.4926 22.3354 23.7031 22.3359H10.4646C10.1445 22.336 9.83441 22.2237 9.58856 22.0185C9.34271 21.8134 9.17665 21.5285 9.11934 21.2135L8.62715 18.5078H24.8105C25.515 18.508 26.1971 18.2609 26.738 17.8097C27.279 17.3585 27.6444 16.7317 27.7705 16.0387L29.4316 6.89629C29.4531 6.77831 29.4484 6.65705 29.4179 6.54107C29.3875 6.42509 29.3319 6.3172 29.2553 6.225ZM12.4922 25.8906C12.4922 26.2692 12.3799 26.6393 12.1696 26.954C11.9593 27.2688 11.6604 27.5141 11.3106 27.659C10.9609 27.8039 10.576 27.8418 10.2047 27.7679C9.83342 27.6941 9.49236 27.5118 9.22468 27.2441C8.95699 26.9764 8.7747 26.6353 8.70084 26.264C8.62699 25.8927 8.66489 25.5079 8.80976 25.1581C8.95463 24.8084 9.19996 24.5095 9.51473 24.2991C9.82949 24.0888 10.1996 23.9766 10.5781 23.9766C11.0858 23.9766 11.5726 24.1782 11.9316 24.5372C12.2905 24.8961 12.4922 25.383 12.4922 25.8906ZM25.6172 25.8906C25.6172 26.2692 25.5049 26.6393 25.2946 26.954C25.0843 27.2688 24.7854 27.5141 24.4356 27.659C24.0859 27.8039 23.701 27.8418 23.3297 27.7679C22.9584 27.6941 22.6174 27.5118 22.3497 27.2441C22.082 26.9764 21.8997 26.6353 21.8258 26.264C21.752 25.8927 21.7899 25.5079 21.9348 25.1581C22.0796 24.8084 22.325 24.5095 22.6397 24.2991C22.9545 24.0888 23.3246 23.9766 23.7031 23.9766C24.2108 23.9766 24.6976 24.1782 25.0566 24.5372C25.4155 24.8961 25.6172 25.383 25.6172 25.8906ZM26.1559 15.7447C26.0985 16.0597 25.9325 16.3447 25.6866 16.5498C25.4408 16.7549 25.1307 16.8672 24.8105 16.8672H8.3291L6.63926 7.57031H27.642L26.1559 15.7447Z" fill="#606162"/>
</svg>
