<svg width="29" height="29" viewBox="0 0 29 29" fill="none" xmlns="http://www.w3.org/2000/svg">
<path d="M28.0003 28.0003L21.4858 21.4858M21.4858 21.4858C22.6001 20.3715 23.4841 19.0486 24.0871 17.5926C24.6902 16.1367 25.0006 14.5762 25.0006 13.0003C25.0006 11.4244 24.6902 9.86393 24.0872 8.40799C23.4841 6.95204 22.6001 5.62914 21.4858 4.51481C20.3715 3.40048 19.0486 2.51654 17.5926 1.91347C16.1367 1.3104 14.5762 1 13.0003 1C11.4244 1 9.86393 1.3104 8.40799 1.91347C6.95204 2.51654 5.62914 3.40048 4.51481 4.51481C2.26431 6.7653 1 9.81763 1 13.0003C1 16.183 2.26431 19.2353 4.51481 21.4858C6.7653 23.7363 9.81763 25.0006 13.0003 25.0006C16.183 25.0006 19.2353 23.7363 21.4858 21.4858Z" stroke="#606161" stroke-width="2" stroke-linecap="round" stroke-linejoin="round"/>
</svg>
